<?xml version="1.0" encoding="utf-8"?>
<!-- Generator: Adobe Illustrator 19.2.1, SVG Export Plug-In . SVG Version: 6.00 Build 0)  -->
<svg version="1.1" id="layer" xmlns="http://www.w3.org/2000/svg" xmlns:xlink="http://www.w3.org/1999/xlink" x="0px" y="0px"
	 viewBox="0 0 652 652" style="enable-background:new 0 0 652 652;" xml:space="preserve">
<style type="text/css">
	.st0{fill:#0076B5;}
	.st1{fill:#FFFFFF;}
</style>
<rect x="20.1" y="178.5" class="st0" width="600" height="287"/>
<path class="st1" d="M116,349.6c-0.6-4.6-0.3-11.2-0.3-14.5l6.8-78.2h25.1l-6.9,78.9c-1.5,17.1,5.1,29.3,21.8,29.3
	c17.1,0,26.1-12.4,27.6-27.5l7.1-80.6h25.1l-6.9,79.6c-2.8,30.7-22.7,53.6-55,53.6C135.3,390.1,119.1,373.6,116,349.6"/>
<path class="st1" d="M228.2,323.1c3.3-37.5,28.1-68.7,71-68.7c11.3,0,22.1,2.6,33,9.7l-2.9,31c-9.9-13.3-21.7-15.4-32.5-15.4
	c-26.7,0-41.4,18.9-43.5,42.9c-2,23.3,9.8,42.3,35.6,42.3c11.3,0,23.3-3.3,35.8-16.1l-2.8,31.9c-12.2,6.7-23.6,9.8-35,9.8
	C244.5,390.4,225.1,358.3,228.2,323.1"/>
<path class="st1" d="M352.2,256.9h25.1l-9.1,106.2H404c2.5,0,11.1-0.1,13.4-0.3c-0.1,1.3-2.3,24.5-2.3,24.5h-74.3L352.2,256.9z"/>
<path class="st1" d="M482.7,305.6c0.8-1.9,1.6-4.2,1.9-5.5c0,0,0.4,0,0.4,0c0.1,1.6,0.4,3.6,1,5.5c1.4,5.9,11.1,39,11.1,39h-31.6
	C465.4,344.6,482.4,306.5,482.7,305.6 M489.1,250.9l-1.7,0l-68.6,136.4h26.6l9.6-20.7h48.3l6,20.7H536L489.1,250.9z"/>
</svg>
