<?xml version="1.0" encoding="UTF-8"?>
<svg xmlns="http://www.w3.org/2000/svg" xmlns:xlink="http://www.w3.org/1999/xlink" width="150px" height="150px" viewBox="0 0 326 326" version="1.1">
<g id="surface1">
<path style=" stroke:none;fill-rule:nonzero;fill:rgb(0%,46.27451%,70.980392%);fill-opacity:1;" d="M 10.050781 132.398438 L 129.699219 132.398438 L 129.699219 189.601562 L 10.050781 189.601562 Z M 10.050781 132.398438 "/>
<path style=" stroke:none;fill-rule:nonzero;fill:rgb(100%,100%,100%);fill-opacity:1;" d="M 29.148438 166.5 C 29.050781 165.601562 29.101562 164.25 29.101562 163.601562 L 30.449219 148 L 35.449219 148 L 34.050781 163.75 C 33.75 167.148438 35.050781 169.601562 38.398438 169.601562 C 41.800781 169.601562 43.601562 167.148438 43.898438 164.101562 L 45.300781 148 L 50.300781 148 L 48.898438 163.851562 C 48.351562 169.949219 44.351562 174.550781 37.949219 174.550781 C 33 174.601562 29.75 171.300781 29.148438 166.5 "/>
<path style=" stroke:none;fill-rule:nonzero;fill:rgb(100%,100%,100%);fill-opacity:1;" d="M 51.5 161.199219 C 52.148438 153.699219 57.101562 147.5 65.648438 147.5 C 67.898438 147.5 70.050781 148.050781 72.199219 149.449219 L 71.648438 155.648438 C 69.699219 153 67.351562 152.550781 65.148438 152.550781 C 59.851562 152.550781 56.898438 156.300781 56.5 161.101562 C 56.101562 165.75 58.449219 169.550781 63.601562 169.550781 C 65.851562 169.550781 68.25 168.898438 70.75 166.351562 L 70.199219 172.699219 C 67.75 174.050781 65.5 174.648438 63.199219 174.648438 C 54.800781 174.648438 50.898438 168.25 51.5 161.199219 "/>
<path style=" stroke:none;fill-rule:nonzero;fill:rgb(100%,100%,100%);fill-opacity:1;" d="M 76.25 148 L 81.25 148 L 79.449219 169.199219 L 86.601562 169.199219 C 87.101562 169.199219 88.800781 169.148438 89.25 169.148438 C 89.199219 169.398438 88.800781 174.050781 88.800781 174.050781 L 74 174.050781 Z M 76.25 148 "/>
<path style=" stroke:none;fill-rule:nonzero;fill:rgb(100%,100%,100%);fill-opacity:1;" d="M 102.25 157.75 C 102.398438 157.398438 102.550781 156.898438 102.601562 156.648438 C 102.601562 156.648438 102.699219 156.648438 102.699219 156.648438 C 102.75 157 102.800781 157.351562 102.898438 157.75 C 103.148438 158.949219 105.101562 165.5 105.101562 165.5 L 98.800781 165.5 C 98.800781 165.5 102.199219 157.898438 102.25 157.75 M 103.550781 146.851562 L 103.199219 146.851562 L 89.5 174.050781 L 94.800781 174.050781 L 96.699219 169.898438 L 106.351562 169.898438 L 107.550781 174.050781 L 112.851562 174.050781 Z M 103.550781 146.851562 "/>
<path style=" stroke:none;fill-rule:nonzero;fill:rgb(13.72549%,10.980392%,11.372549%);fill-opacity:1;" d="M 148.199219 139.398438 L 152.949219 139.398438 L 160.898438 161.949219 L 156.148438 161.949219 L 154.648438 157.148438 L 146.5 157.148438 L 145 161.949219 L 140.351562 161.949219 Z M 147.550781 153.699219 L 153.5 153.699219 L 151.5 147.199219 C 151.101562 146 150.601562 143.75 150.601562 143.75 L 150.5 143.75 C 150.5 143.75 149.949219 146 149.550781 147.199219 Z M 147.550781 153.699219 "/>
<path style=" stroke:none;fill-rule:nonzero;fill:rgb(13.72549%,10.980392%,11.372549%);fill-opacity:1;" d="M 166.449219 148 L 166.550781 148 C 167.648438 146.25 169.148438 145.351562 171.351562 145.351562 C 174.699219 145.351562 176.949219 147.851562 176.949219 151.398438 L 176.949219 161.949219 L 172.648438 161.949219 L 172.648438 152 C 172.648438 150.25 171.648438 149.050781 169.851562 149.050781 C 167.949219 149.050781 166.550781 150.550781 166.550781 152.75 L 166.550781 161.898438 L 162.25 161.898438 L 162.25 145.75 L 166.449219 145.75 Z M 166.449219 148 "/>
<path style=" stroke:none;fill-rule:nonzero;fill:rgb(13.72549%,10.980392%,11.372549%);fill-opacity:1;" d="M 178.75 153.898438 C 178.75 148.851562 181.601562 145.351562 185.648438 145.351562 C 187.898438 145.351562 189.351562 146.398438 190.199219 147.75 L 190.300781 147.75 L 190.300781 139.398438 L 194.601562 139.398438 L 194.601562 161.949219 L 190.5 161.949219 L 190.5 159.851562 L 190.449219 159.851562 C 189.5 161.398438 187.898438 162.449219 185.648438 162.449219 C 181.550781 162.449219 178.75 159.148438 178.75 153.898438 M 190.449219 154 C 190.449219 150.898438 189.449219 148.851562 186.699219 148.851562 C 184.351562 148.851562 183.148438 150.949219 183.148438 153.949219 C 183.148438 157.050781 184.398438 158.898438 186.601562 158.898438 C 189.101562 158.851562 190.449219 156.949219 190.449219 154 "/>
<path style=" stroke:none;fill-rule:nonzero;fill:rgb(13.72549%,10.980392%,11.372549%);fill-opacity:1;" d="M 196.550781 153.851562 C 196.550781 149.050781 199.800781 145.351562 204.550781 145.351562 C 209.75 145.351562 212.550781 149.300781 212.550781 155.101562 L 200.800781 155.101562 C 201.101562 157.601562 202.5 159.148438 204.949219 159.148438 C 206.601562 159.148438 207.601562 158.398438 208.050781 157.148438 L 212.300781 157.148438 C 211.699219 160 209.148438 162.449219 205 162.449219 C 199.601562 162.449219 196.550781 158.699219 196.550781 153.851562 M 200.851562 152.148438 L 208.050781 152.148438 C 207.949219 150.101562 206.550781 148.699219 204.601562 148.699219 C 202.351562 148.648438 201.25 150 200.851562 152.148438 "/>
<path style=" stroke:none;fill-rule:nonzero;fill:rgb(13.72549%,10.980392%,11.372549%);fill-opacity:1;" d="M 218.601562 148.398438 L 218.699219 148.398438 C 219.699219 146.550781 220.800781 145.648438 222.648438 145.648438 C 223.101562 145.648438 223.398438 145.699219 223.648438 145.800781 L 223.648438 149.550781 L 223.550781 149.550781 C 220.75 149.25 218.75 150.75 218.75 154.148438 L 218.75 162.050781 L 214.449219 162.050781 L 214.449219 145.898438 L 218.601562 145.898438 Z M 218.601562 148.398438 "/>
<path style=" stroke:none;fill-rule:nonzero;fill:rgb(13.72549%,10.980392%,11.372549%);fill-opacity:1;" d="M 224.351562 156.75 L 228.300781 156.75 C 228.601562 158.601562 229.898438 159.449219 231.851562 159.449219 C 233.75 159.449219 234.800781 158.75 234.800781 157.601562 C 234.800781 156.050781 232.75 155.898438 230.550781 155.449219 C 227.648438 154.898438 224.800781 154.101562 224.800781 150.550781 C 224.800781 147.050781 227.699219 145.398438 231.398438 145.398438 C 235.648438 145.398438 238 147.5 238.351562 150.75 L 234.449219 150.75 C 234.25 149 233.148438 148.398438 231.351562 148.398438 C 229.699219 148.398438 228.601562 149.050781 228.601562 150.199219 C 228.601562 151.601562 230.75 151.699219 233.050781 152.199219 C 235.75 152.75 238.75 153.5 238.75 157.300781 C 238.75 160.550781 236 162.5 231.949219 162.5 C 227.199219 162.449219 224.601562 160.148438 224.351562 156.75 "/>
<path style=" stroke:none;fill-rule:nonzero;fill:rgb(13.72549%,10.980392%,11.372549%);fill-opacity:1;" d="M 239.699219 153.898438 C 239.699219 149.101562 243.148438 145.351562 248.148438 145.351562 C 253.148438 145.351562 256.601562 149.050781 256.601562 153.898438 C 256.601562 158.699219 253.148438 162.449219 248.148438 162.449219 C 243.148438 162.449219 239.699219 158.699219 239.699219 153.898438 M 252.25 153.898438 C 252.25 150.75 250.75 148.601562 248.148438 148.601562 C 245.5 148.601562 244.050781 150.75 244.050781 153.898438 C 244.050781 157.050781 245.5 159.148438 248.148438 159.148438 C 250.75 159.148438 252.25 157.050781 252.25 153.898438 "/>
<path style=" stroke:none;fill-rule:nonzero;fill:rgb(13.72549%,10.980392%,11.372549%);fill-opacity:1;" d="M 262.75 148 L 262.851562 148 C 263.949219 146.25 265.449219 145.351562 267.648438 145.351562 C 271 145.351562 273.25 147.851562 273.25 151.398438 L 273.25 161.949219 L 268.949219 161.949219 L 268.949219 152 C 268.949219 150.25 267.949219 149.050781 266.148438 149.050781 C 264.25 149.050781 262.851562 150.550781 262.851562 152.75 L 262.851562 161.898438 L 258.550781 161.898438 L 258.550781 145.75 L 262.75 145.75 Z M 262.75 148 "/>
<path style=" stroke:none;fill-rule:nonzero;fill:rgb(13.72549%,10.980392%,11.372549%);fill-opacity:1;" d="M 140.648438 177.25 L 142.199219 177.25 C 142.398438 179.351562 143.699219 180.5 146.101562 180.5 C 147.851562 180.5 149.101562 179.699219 149.101562 178.148438 C 149.101562 176.449219 147.601562 176.050781 145.351562 175.550781 C 143.148438 175.050781 141.25 174.449219 141.25 172.050781 C 141.25 170 142.949219 168.75 145.5 168.75 C 148.648438 168.75 149.949219 170.351562 150.25 172.648438 L 148.75 172.648438 C 148.5 170.851562 147.351562 169.949219 145.5 169.949219 C 143.800781 169.949219 142.648438 170.648438 142.648438 171.949219 C 142.648438 173.351562 144.050781 173.800781 145.949219 174.148438 C 148.398438 174.648438 150.601562 175.25 150.601562 178.050781 C 150.601562 180.398438 148.699219 181.699219 146 181.699219 C 142.5 181.75 140.800781 179.800781 140.648438 177.25 "/>
<path style=" stroke:none;fill-rule:nonzero;fill:rgb(13.72549%,10.980392%,11.372549%);fill-opacity:1;" d="M 151.75 177 C 151.75 174.351562 153.449219 172.199219 156.148438 172.199219 C 158.300781 172.199219 159.699219 173.449219 160.050781 175.351562 L 158.601562 175.351562 C 158.398438 174.101562 157.550781 173.351562 156.148438 173.351562 C 154.199219 173.351562 153.199219 174.949219 153.199219 176.949219 C 153.199219 178.949219 154.199219 180.550781 156.148438 180.550781 C 157.601562 180.550781 158.5 179.699219 158.601562 178.300781 L 160 178.300781 C 159.800781 180.5 158.398438 181.75 156.101562 181.75 C 153.449219 181.75 151.75 179.601562 151.75 177 "/>
<path style=" stroke:none;fill-rule:nonzero;fill:rgb(13.72549%,10.980392%,11.372549%);fill-opacity:1;" d="M 162.800781 173.648438 C 163.5 172.800781 164.398438 172.25 165.699219 172.25 C 167.601562 172.25 168.75 173.300781 168.75 175.148438 L 168.75 181.5 L 167.351562 181.5 L 167.351562 175.25 C 167.351562 174.050781 166.601562 173.398438 165.300781 173.398438 C 163.851562 173.398438 162.800781 174.398438 162.800781 175.898438 L 162.800781 181.5 L 161.398438 181.5 L 161.398438 168.949219 L 162.800781 168.949219 Z M 162.800781 173.648438 "/>
<path style=" stroke:none;fill-rule:nonzero;fill:rgb(13.72549%,10.980392%,11.372549%);fill-opacity:1;" d="M 170.101562 177 C 170.101562 174.351562 171.800781 172.199219 174.5 172.199219 C 177.199219 172.199219 178.898438 174.351562 178.898438 177 C 178.898438 179.648438 177.25 181.800781 174.5 181.800781 C 171.800781 181.75 170.101562 179.601562 170.101562 177 M 177.398438 177 C 177.398438 175 176.398438 173.398438 174.5 173.398438 C 172.550781 173.398438 171.550781 175 171.550781 177 C 171.550781 179 172.550781 180.601562 174.5 180.601562 C 176.449219 180.550781 177.398438 179 177.398438 177 "/>
<path style=" stroke:none;fill-rule:nonzero;fill:rgb(13.72549%,10.980392%,11.372549%);fill-opacity:1;" d="M 179.800781 177 C 179.800781 174.351562 181.5 172.199219 184.199219 172.199219 C 186.898438 172.199219 188.550781 174.351562 188.550781 177 C 188.550781 179.648438 186.898438 181.800781 184.199219 181.800781 C 181.449219 181.75 179.800781 179.601562 179.800781 177 M 187.101562 177 C 187.101562 175 186.101562 173.398438 184.199219 173.398438 C 182.25 173.398438 181.25 175 181.25 177 C 181.25 179 182.25 180.601562 184.199219 180.601562 C 186.101562 180.550781 187.101562 179 187.101562 177 "/>
<path style=" stroke:none;fill-rule:nonzero;fill:rgb(13.72549%,10.980392%,11.372549%);fill-opacity:1;" d="M 190 168.949219 L 191.398438 168.949219 L 191.398438 181.5 L 190 181.5 Z M 190 168.949219 "/>
<path style=" stroke:none;fill-rule:nonzero;fill:rgb(13.72549%,10.980392%,11.372549%);fill-opacity:1;" d="M 195.648438 177 C 195.648438 174.351562 197.351562 172.199219 200.050781 172.199219 C 202.75 172.199219 204.398438 174.351562 204.398438 177 C 204.398438 179.648438 202.75 181.800781 200.050781 181.800781 C 197.351562 181.75 195.648438 179.601562 195.648438 177 M 202.949219 177 C 202.949219 175 201.949219 173.398438 200.050781 173.398438 C 198.101562 173.398438 197.101562 175 197.101562 177 C 197.101562 179 198.101562 180.601562 200.050781 180.601562 C 202 180.550781 202.949219 179 202.949219 177 "/>
<path style=" stroke:none;fill-rule:nonzero;fill:rgb(13.72549%,10.980392%,11.372549%);fill-opacity:1;" d="M 204.898438 172.449219 L 206.148438 172.449219 L 206.148438 171 C 206.148438 169.449219 207.050781 168.898438 208.550781 168.898438 C 208.851562 168.898438 209.101562 168.898438 209.25 168.949219 L 209.25 170.148438 C 209 170.148438 208.949219 170.148438 208.800781 170.148438 C 207.898438 170.148438 207.550781 170.398438 207.550781 171.101562 L 207.550781 172.5 L 209.25 172.5 L 209.25 173.648438 L 207.550781 173.648438 L 207.550781 181.5 L 206.148438 181.5 L 206.148438 173.601562 L 204.898438 173.601562 Z M 204.898438 172.449219 "/>
<path style=" stroke:none;fill-rule:nonzero;fill:rgb(13.72549%,10.980392%,11.372549%);fill-opacity:1;" d="M 213.648438 168.949219 L 215.648438 168.949219 L 219.699219 179.398438 L 219.75 179.398438 L 223.800781 168.949219 L 225.851562 168.949219 L 225.851562 181.5 L 224.351562 181.5 L 224.351562 171.199219 L 224.300781 171.199219 C 224.300781 171.199219 223.949219 172.199219 223.75 172.800781 L 220.300781 181.550781 L 219.101562 181.550781 L 215.648438 172.800781 C 215.398438 172.148438 215.101562 171.199219 215.101562 171.199219 L 215.050781 171.199219 L 215.050781 181.5 L 213.648438 181.5 Z M 213.648438 168.949219 "/>
<path style=" stroke:none;fill-rule:nonzero;fill:rgb(13.72549%,10.980392%,11.372549%);fill-opacity:1;" d="M 233.648438 180.25 C 233.101562 180.949219 232.148438 181.699219 230.601562 181.699219 C 228.898438 181.699219 227.550781 180.898438 227.550781 179.148438 C 227.550781 177 229.25 176.550781 231.5 176.199219 C 232.800781 176 233.699219 175.898438 233.699219 174.898438 C 233.699219 173.898438 232.949219 173.300781 231.648438 173.300781 C 230.148438 173.300781 229.449219 173.949219 229.398438 175.300781 L 228 175.300781 C 228.050781 173.550781 229.199219 172.25 231.601562 172.25 C 233.550781 172.25 234.949219 172.949219 234.949219 175.148438 L 234.949219 179.449219 C 234.949219 180.199219 235.148438 180.601562 235.898438 180.398438 L 235.949219 180.398438 L 235.949219 181.449219 C 235.75 181.5 235.550781 181.601562 235.199219 181.601562 C 234.300781 181.601562 233.800781 181.199219 233.648438 180.25 M 233.699219 178.148438 L 233.699219 176.601562 C 233.25 176.898438 232.398438 177.148438 231.648438 177.25 C 230.25 177.5 229.101562 177.75 229.101562 179.101562 C 229.101562 180.300781 230.050781 180.601562 231 180.601562 C 232.851562 180.601562 233.699219 179.199219 233.699219 178.148438 "/>
<path style=" stroke:none;fill-rule:nonzero;fill:rgb(13.72549%,10.980392%,11.372549%);fill-opacity:1;" d="M 238.449219 173.648438 C 239.148438 172.800781 240.050781 172.25 241.351562 172.25 C 243.25 172.25 244.398438 173.300781 244.398438 175.148438 L 244.398438 181.5 L 243 181.5 L 243 175.25 C 243 174.050781 242.25 173.398438 240.949219 173.398438 C 239.5 173.398438 238.449219 174.398438 238.449219 175.898438 L 238.449219 181.5 L 237.050781 181.5 L 237.050781 172.398438 L 238.449219 172.398438 Z M 238.449219 173.648438 "/>
<path style=" stroke:none;fill-rule:nonzero;fill:rgb(13.72549%,10.980392%,11.372549%);fill-opacity:1;" d="M 251.851562 180.25 C 251.300781 180.949219 250.351562 181.699219 248.800781 181.699219 C 247.101562 181.699219 245.75 180.898438 245.75 179.148438 C 245.75 177 247.449219 176.550781 249.699219 176.199219 C 251 176 251.898438 175.898438 251.898438 174.898438 C 251.898438 173.898438 251.148438 173.300781 249.851562 173.300781 C 248.351562 173.300781 247.648438 173.949219 247.601562 175.300781 L 246.25 175.300781 C 246.300781 173.550781 247.449219 172.25 249.851562 172.25 C 251.800781 172.25 253.199219 172.949219 253.199219 175.148438 L 253.199219 179.449219 C 253.199219 180.199219 253.398438 180.601562 254.148438 180.398438 L 254.199219 180.398438 L 254.199219 181.449219 C 254 181.5 253.800781 181.601562 253.449219 181.601562 C 252.449219 181.601562 252 181.199219 251.851562 180.25 M 251.898438 178.148438 L 251.898438 176.601562 C 251.449219 176.898438 250.601562 177.148438 249.851562 177.25 C 248.449219 177.5 247.300781 177.75 247.300781 179.101562 C 247.300781 180.300781 248.25 180.601562 249.199219 180.601562 C 251 180.601562 251.898438 179.199219 251.898438 178.148438 "/>
<path style=" stroke:none;fill-rule:nonzero;fill:rgb(13.72549%,10.980392%,11.372549%);fill-opacity:1;" d="M 254.851562 182 L 256.148438 182 C 256.300781 183 257.25 183.398438 258.648438 183.398438 C 260.300781 183.398438 261.25 182.648438 261.25 181.050781 L 261.25 179.75 L 261.199219 179.75 C 260.550781 180.601562 259.800781 181.148438 258.5 181.148438 C 256.148438 181.148438 254.550781 179.25 254.550781 176.648438 C 254.550781 173.800781 256.300781 172.148438 258.449219 172.148438 C 259.75 172.148438 260.601562 172.648438 261.25 173.5 L 261.300781 173.5 L 261.300781 172.351562 L 262.699219 172.351562 L 262.699219 181 C 262.699219 183.398438 261.101562 184.5 258.699219 184.5 C 256.351562 184.550781 255 183.601562 254.851562 182 M 261.351562 176.648438 C 261.351562 174.648438 260.5 173.449219 258.550781 173.449219 C 256.851562 173.449219 256 174.800781 256 176.75 C 256 178.75 256.898438 180.050781 258.601562 180.050781 C 260.699219 180 261.351562 178.550781 261.351562 176.648438 "/>
<path style=" stroke:none;fill-rule:nonzero;fill:rgb(13.72549%,10.980392%,11.372549%);fill-opacity:1;" d="M 264.101562 177 C 264.101562 174.351562 265.800781 172.199219 268.398438 172.199219 C 271.101562 172.199219 272.601562 174.300781 272.601562 177.300781 L 265.550781 177.300781 C 265.648438 179.148438 266.648438 180.550781 268.5 180.550781 C 269.800781 180.550781 270.699219 179.898438 271 178.699219 L 272.398438 178.699219 C 272 180.648438 270.550781 181.75 268.5 181.75 C 265.699219 181.75 264.101562 179.601562 264.101562 177 M 265.550781 176.25 L 271 176.25 C 270.898438 174.449219 270 173.351562 268.351562 173.351562 C 266.699219 173.351562 265.800781 174.601562 265.550781 176.25 "/>
<path style=" stroke:none;fill-rule:nonzero;fill:rgb(13.72549%,10.980392%,11.372549%);fill-opacity:1;" d="M 273.898438 172.449219 L 275.300781 172.449219 L 275.300781 173.75 L 275.351562 173.75 C 275.898438 172.851562 276.851562 172.25 278 172.25 C 279.101562 172.25 280 172.800781 280.351562 173.851562 L 280.398438 173.851562 C 281 172.800781 282.050781 172.25 283.148438 172.25 C 284.75 172.25 285.898438 173.300781 285.898438 175.148438 L 285.898438 181.5 L 284.5 181.5 L 284.5 175.199219 C 284.5 174.101562 283.75 173.398438 282.851562 173.398438 C 281.648438 173.398438 280.601562 174.398438 280.601562 175.851562 L 280.601562 181.5 L 279.199219 181.5 L 279.199219 175.199219 C 279.199219 174.101562 278.550781 173.398438 277.648438 173.398438 C 276.550781 173.398438 275.300781 174.398438 275.300781 175.851562 L 275.300781 181.5 L 273.898438 181.5 Z M 273.898438 172.449219 "/>
<path style=" stroke:none;fill-rule:nonzero;fill:rgb(13.72549%,10.980392%,11.372549%);fill-opacity:1;" d="M 287.351562 177 C 287.351562 174.351562 289.050781 172.199219 291.648438 172.199219 C 294.351562 172.199219 295.851562 174.300781 295.851562 177.300781 L 288.800781 177.300781 C 288.898438 179.148438 289.898438 180.550781 291.75 180.550781 C 293.050781 180.550781 293.949219 179.898438 294.25 178.699219 L 295.648438 178.699219 C 295.25 180.648438 293.800781 181.75 291.75 181.75 C 288.949219 181.75 287.351562 179.601562 287.351562 177 M 288.800781 176.25 L 294.25 176.25 C 294.148438 174.449219 293.25 173.351562 291.601562 173.351562 C 289.949219 173.351562 289.050781 174.601562 288.800781 176.25 "/>
<path style=" stroke:none;fill-rule:nonzero;fill:rgb(13.72549%,10.980392%,11.372549%);fill-opacity:1;" d="M 298.601562 173.648438 C 299.300781 172.800781 300.199219 172.25 301.5 172.25 C 303.398438 172.25 304.550781 173.300781 304.550781 175.148438 L 304.550781 181.5 L 303.148438 181.5 L 303.148438 175.25 C 303.148438 174.050781 302.398438 173.398438 301.101562 173.398438 C 299.648438 173.398438 298.601562 174.398438 298.601562 175.898438 L 298.601562 181.5 L 297.199219 181.5 L 297.199219 172.398438 L 298.601562 172.398438 Z M 298.601562 173.648438 "/>
<path style=" stroke:none;fill-rule:nonzero;fill:rgb(13.72549%,10.980392%,11.372549%);fill-opacity:1;" d="M 305.550781 172.449219 L 306.851562 172.449219 L 306.851562 169.601562 L 308.25 169.601562 L 308.25 172.449219 L 310 172.449219 L 310 173.601562 L 308.25 173.601562 L 308.25 179.5 C 308.25 180.148438 308.601562 180.351562 309.148438 180.351562 C 309.449219 180.351562 309.75 180.300781 309.898438 180.25 L 309.949219 180.25 L 309.949219 181.5 C 309.601562 181.550781 309.25 181.601562 308.800781 181.601562 C 307.648438 181.601562 306.800781 181.148438 306.800781 179.851562 L 306.800781 173.648438 L 305.5 173.648438 L 305.5 172.449219 Z M 305.550781 172.449219 "/>
</g>
</svg>
