<?xml version="1.0" encoding="UTF-8"?>
<svg xmlns="http://www.w3.org/2000/svg" xmlns:xlink="http://www.w3.org/1999/xlink" width="140px" height="140px" viewBox="0 0 163 163" version="1.1">
<g id="surface1">
<path style=" stroke:none;fill-rule:nonzero;fill:rgb(0%,46.27451%,70.980392%);fill-opacity:1;" d="M 5.023438 66.199219 L 64.851562 66.199219 L 64.851562 94.800781 L 5.023438 94.800781 Z M 5.023438 66.199219 "/>
<path style=" stroke:none;fill-rule:nonzero;fill:rgb(100%,100%,100%);fill-opacity:1;" d="M 14.574219 83.25 C 14.523438 82.800781 14.550781 82.125 14.550781 81.800781 L 15.226562 74 L 17.726562 74 L 17.023438 81.875 C 16.875 83.574219 17.523438 84.800781 19.199219 84.800781 C 20.898438 84.800781 21.800781 83.574219 21.949219 82.050781 L 22.648438 74 L 25.148438 74 L 24.449219 81.925781 C 24.175781 84.976562 22.175781 87.273438 18.976562 87.273438 C 16.5 87.300781 14.875 85.648438 14.574219 83.25 "/>
<path style=" stroke:none;fill-rule:nonzero;fill:rgb(100%,100%,100%);fill-opacity:1;" d="M 25.75 80.601562 C 26.074219 76.851562 28.550781 73.75 32.824219 73.75 C 33.949219 73.75 35.023438 74.023438 36.101562 74.726562 L 35.824219 77.824219 C 34.851562 76.5 33.675781 76.273438 32.574219 76.273438 C 29.925781 76.273438 28.449219 78.148438 28.25 80.550781 C 28.050781 82.875 29.226562 84.773438 31.800781 84.773438 C 32.925781 84.773438 34.125 84.449219 35.375 83.175781 L 35.101562 86.351562 C 33.875 87.023438 32.75 87.324219 31.601562 87.324219 C 27.398438 87.324219 25.449219 84.125 25.75 80.601562 "/>
<path style=" stroke:none;fill-rule:nonzero;fill:rgb(100%,100%,100%);fill-opacity:1;" d="M 38.125 74 L 40.625 74 L 39.726562 84.601562 L 43.300781 84.601562 C 43.550781 84.601562 44.398438 84.574219 44.625 84.574219 C 44.601562 84.699219 44.398438 87.023438 44.398438 87.023438 L 37 87.023438 Z M 38.125 74 "/>
<path style=" stroke:none;fill-rule:nonzero;fill:rgb(100%,100%,100%);fill-opacity:1;" d="M 51.125 78.875 C 51.199219 78.699219 51.273438 78.449219 51.300781 78.324219 C 51.300781 78.324219 51.351562 78.324219 51.351562 78.324219 C 51.375 78.5 51.398438 78.675781 51.449219 78.875 C 51.574219 79.476562 52.550781 82.75 52.550781 82.75 L 49.398438 82.75 C 49.398438 82.75 51.101562 78.949219 51.125 78.875 M 51.773438 73.425781 L 51.601562 73.425781 L 44.75 87.023438 L 47.398438 87.023438 L 48.351562 84.949219 L 53.175781 84.949219 L 53.773438 87.023438 L 56.425781 87.023438 Z M 51.773438 73.425781 "/>
<path style=" stroke:none;fill-rule:nonzero;fill:rgb(13.72549%,10.980392%,11.372549%);fill-opacity:1;" d="M 74.101562 69.699219 L 76.476562 69.699219 L 80.449219 80.976562 L 78.074219 80.976562 L 77.324219 78.574219 L 73.25 78.574219 L 72.5 80.976562 L 70.175781 80.976562 Z M 73.773438 76.851562 L 76.75 76.851562 L 75.75 73.601562 C 75.550781 73 75.300781 71.875 75.300781 71.875 L 75.25 71.875 C 75.25 71.875 74.976562 73 74.773438 73.601562 Z M 73.773438 76.851562 "/>
<path style=" stroke:none;fill-rule:nonzero;fill:rgb(13.72549%,10.980392%,11.372549%);fill-opacity:1;" d="M 83.226562 74 L 83.273438 74 C 83.824219 73.125 84.574219 72.675781 85.675781 72.675781 C 87.351562 72.675781 88.476562 73.925781 88.476562 75.699219 L 88.476562 80.976562 L 86.324219 80.976562 L 86.324219 76 C 86.324219 75.125 85.824219 74.523438 84.925781 74.523438 C 83.976562 74.523438 83.273438 75.273438 83.273438 76.375 L 83.273438 80.949219 L 81.125 80.949219 L 81.125 72.875 L 83.226562 72.875 Z M 83.226562 74 "/>
<path style=" stroke:none;fill-rule:nonzero;fill:rgb(13.72549%,10.980392%,11.372549%);fill-opacity:1;" d="M 89.375 76.949219 C 89.375 74.425781 90.800781 72.675781 92.824219 72.675781 C 93.949219 72.675781 94.675781 73.199219 95.101562 73.875 L 95.148438 73.875 L 95.148438 69.699219 L 97.300781 69.699219 L 97.300781 80.976562 L 95.25 80.976562 L 95.25 79.925781 L 95.226562 79.925781 C 94.75 80.699219 93.949219 81.226562 92.824219 81.226562 C 90.773438 81.226562 89.375 79.574219 89.375 76.949219 M 95.226562 77 C 95.226562 75.449219 94.726562 74.425781 93.351562 74.425781 C 92.175781 74.425781 91.574219 75.476562 91.574219 76.976562 C 91.574219 78.523438 92.199219 79.449219 93.300781 79.449219 C 94.550781 79.425781 95.226562 78.476562 95.226562 77 "/>
<path style=" stroke:none;fill-rule:nonzero;fill:rgb(13.72549%,10.980392%,11.372549%);fill-opacity:1;" d="M 98.273438 76.925781 C 98.273438 74.523438 99.898438 72.675781 102.273438 72.675781 C 104.875 72.675781 106.273438 74.648438 106.273438 77.550781 L 100.398438 77.550781 C 100.550781 78.800781 101.25 79.574219 102.476562 79.574219 C 103.300781 79.574219 103.800781 79.199219 104.023438 78.574219 L 106.148438 78.574219 C 105.851562 80 104.574219 81.226562 102.5 81.226562 C 99.800781 81.226562 98.273438 79.351562 98.273438 76.925781 M 100.425781 76.074219 L 104.023438 76.074219 C 103.976562 75.050781 103.273438 74.351562 102.300781 74.351562 C 101.175781 74.324219 100.625 75 100.425781 76.074219 "/>
<path style=" stroke:none;fill-rule:nonzero;fill:rgb(13.72549%,10.980392%,11.372549%);fill-opacity:1;" d="M 109.300781 74.199219 L 109.351562 74.199219 C 109.851562 73.273438 110.398438 72.824219 111.324219 72.824219 C 111.550781 72.824219 111.699219 72.851562 111.824219 72.898438 L 111.824219 74.773438 L 111.773438 74.773438 C 110.375 74.625 109.375 75.375 109.375 77.074219 L 109.375 81.023438 L 107.226562 81.023438 L 107.226562 72.949219 L 109.300781 72.949219 Z M 109.300781 74.199219 "/>
<path style=" stroke:none;fill-rule:nonzero;fill:rgb(13.72549%,10.980392%,11.372549%);fill-opacity:1;" d="M 112.175781 78.375 L 114.148438 78.375 C 114.300781 79.300781 114.949219 79.726562 115.925781 79.726562 C 116.875 79.726562 117.398438 79.375 117.398438 78.800781 C 117.398438 78.023438 116.375 77.949219 115.273438 77.726562 C 113.824219 77.449219 112.398438 77.050781 112.398438 75.273438 C 112.398438 73.523438 113.851562 72.699219 115.699219 72.699219 C 117.824219 72.699219 119 73.75 119.175781 75.375 L 117.226562 75.375 C 117.125 74.5 116.574219 74.199219 115.675781 74.199219 C 114.851562 74.199219 114.300781 74.523438 114.300781 75.101562 C 114.300781 75.800781 115.375 75.851562 116.523438 76.101562 C 117.875 76.375 119.375 76.75 119.375 78.648438 C 119.375 80.273438 118 81.25 115.976562 81.25 C 113.601562 81.226562 112.300781 80.074219 112.175781 78.375 "/>
<path style=" stroke:none;fill-rule:nonzero;fill:rgb(13.72549%,10.980392%,11.372549%);fill-opacity:1;" d="M 119.851562 76.949219 C 119.851562 74.550781 121.574219 72.675781 124.074219 72.675781 C 126.574219 72.675781 128.300781 74.523438 128.300781 76.949219 C 128.300781 79.351562 126.574219 81.226562 124.074219 81.226562 C 121.574219 81.226562 119.851562 79.351562 119.851562 76.949219 M 126.125 76.949219 C 126.125 75.375 125.375 74.300781 124.074219 74.300781 C 122.75 74.300781 122.023438 75.375 122.023438 76.949219 C 122.023438 78.523438 122.75 79.574219 124.074219 79.574219 C 125.375 79.574219 126.125 78.523438 126.125 76.949219 "/>
<path style=" stroke:none;fill-rule:nonzero;fill:rgb(13.72549%,10.980392%,11.372549%);fill-opacity:1;" d="M 131.375 74 L 131.425781 74 C 131.976562 73.125 132.726562 72.675781 133.824219 72.675781 C 135.5 72.675781 136.625 73.925781 136.625 75.699219 L 136.625 80.976562 L 134.476562 80.976562 L 134.476562 76 C 134.476562 75.125 133.976562 74.523438 133.074219 74.523438 C 132.125 74.523438 131.425781 75.273438 131.425781 76.375 L 131.425781 80.949219 L 129.273438 80.949219 L 129.273438 72.875 L 131.375 72.875 Z M 131.375 74 "/>
<path style=" stroke:none;fill-rule:nonzero;fill:rgb(13.72549%,10.980392%,11.372549%);fill-opacity:1;" d="M 70.324219 88.625 L 71.101562 88.625 C 71.199219 89.675781 71.851562 90.25 73.050781 90.25 C 73.925781 90.25 74.550781 89.851562 74.550781 89.074219 C 74.550781 88.226562 73.800781 88.023438 72.675781 87.773438 C 71.574219 87.523438 70.625 87.226562 70.625 86.023438 C 70.625 85 71.476562 84.375 72.75 84.375 C 74.324219 84.375 74.976562 85.175781 75.125 86.324219 L 74.375 86.324219 C 74.25 85.425781 73.675781 84.976562 72.75 84.976562 C 71.898438 84.976562 71.324219 85.324219 71.324219 85.976562 C 71.324219 86.675781 72.023438 86.898438 72.976562 87.074219 C 74.199219 87.324219 75.300781 87.625 75.300781 89.023438 C 75.300781 90.199219 74.351562 90.851562 73 90.851562 C 71.25 90.875 70.398438 89.898438 70.324219 88.625 "/>
<path style=" stroke:none;fill-rule:nonzero;fill:rgb(13.72549%,10.980392%,11.372549%);fill-opacity:1;" d="M 75.875 88.5 C 75.875 87.175781 76.726562 86.101562 78.074219 86.101562 C 79.148438 86.101562 79.851562 86.726562 80.023438 87.675781 L 79.300781 87.675781 C 79.199219 87.050781 78.773438 86.675781 78.074219 86.675781 C 77.101562 86.675781 76.601562 87.476562 76.601562 88.476562 C 76.601562 89.476562 77.101562 90.273438 78.074219 90.273438 C 78.800781 90.273438 79.25 89.851562 79.300781 89.148438 L 80 89.148438 C 79.898438 90.25 79.199219 90.875 78.050781 90.875 C 76.726562 90.875 75.875 89.800781 75.875 88.5 "/>
<path style=" stroke:none;fill-rule:nonzero;fill:rgb(13.72549%,10.980392%,11.372549%);fill-opacity:1;" d="M 81.398438 86.824219 C 81.75 86.398438 82.199219 86.125 82.851562 86.125 C 83.800781 86.125 84.375 86.648438 84.375 87.574219 L 84.375 90.75 L 83.675781 90.75 L 83.675781 87.625 C 83.675781 87.023438 83.300781 86.699219 82.648438 86.699219 C 81.925781 86.699219 81.398438 87.199219 81.398438 87.949219 L 81.398438 90.75 L 80.699219 90.75 L 80.699219 84.476562 L 81.398438 84.476562 Z M 81.398438 86.824219 "/>
<path style=" stroke:none;fill-rule:nonzero;fill:rgb(13.72549%,10.980392%,11.372549%);fill-opacity:1;" d="M 85.050781 88.5 C 85.050781 87.175781 85.898438 86.101562 87.25 86.101562 C 88.601562 86.101562 89.449219 87.175781 89.449219 88.5 C 89.449219 89.824219 88.625 90.898438 87.25 90.898438 C 85.898438 90.875 85.050781 89.800781 85.050781 88.5 M 88.699219 88.5 C 88.699219 87.5 88.199219 86.699219 87.25 86.699219 C 86.273438 86.699219 85.773438 87.5 85.773438 88.5 C 85.773438 89.5 86.273438 90.300781 87.25 90.300781 C 88.226562 90.273438 88.699219 89.5 88.699219 88.5 "/>
<path style=" stroke:none;fill-rule:nonzero;fill:rgb(13.72549%,10.980392%,11.372549%);fill-opacity:1;" d="M 89.898438 88.5 C 89.898438 87.175781 90.75 86.101562 92.101562 86.101562 C 93.449219 86.101562 94.273438 87.175781 94.273438 88.5 C 94.273438 89.824219 93.449219 90.898438 92.101562 90.898438 C 90.726562 90.875 89.898438 89.800781 89.898438 88.5 M 93.550781 88.5 C 93.550781 87.5 93.050781 86.699219 92.101562 86.699219 C 91.125 86.699219 90.625 87.5 90.625 88.5 C 90.625 89.5 91.125 90.300781 92.101562 90.300781 C 93.050781 90.273438 93.550781 89.5 93.550781 88.5 "/>
<path style=" stroke:none;fill-rule:nonzero;fill:rgb(13.72549%,10.980392%,11.372549%);fill-opacity:1;" d="M 95 84.476562 L 95.699219 84.476562 L 95.699219 90.75 L 95 90.75 Z M 95 84.476562 "/>
<path style=" stroke:none;fill-rule:nonzero;fill:rgb(13.72549%,10.980392%,11.372549%);fill-opacity:1;" d="M 97.824219 88.5 C 97.824219 87.175781 98.675781 86.101562 100.023438 86.101562 C 101.375 86.101562 102.199219 87.175781 102.199219 88.5 C 102.199219 89.824219 101.375 90.898438 100.023438 90.898438 C 98.675781 90.875 97.824219 89.800781 97.824219 88.5 M 101.476562 88.5 C 101.476562 87.5 100.976562 86.699219 100.023438 86.699219 C 99.050781 86.699219 98.550781 87.5 98.550781 88.5 C 98.550781 89.5 99.050781 90.300781 100.023438 90.300781 C 101 90.273438 101.476562 89.5 101.476562 88.5 "/>
<path style=" stroke:none;fill-rule:nonzero;fill:rgb(13.72549%,10.980392%,11.372549%);fill-opacity:1;" d="M 102.449219 86.226562 L 103.074219 86.226562 L 103.074219 85.5 C 103.074219 84.726562 103.523438 84.449219 104.273438 84.449219 C 104.425781 84.449219 104.550781 84.449219 104.625 84.476562 L 104.625 85.074219 C 104.5 85.074219 104.476562 85.074219 104.398438 85.074219 C 103.949219 85.074219 103.773438 85.199219 103.773438 85.550781 L 103.773438 86.25 L 104.625 86.25 L 104.625 86.824219 L 103.773438 86.824219 L 103.773438 90.75 L 103.074219 90.75 L 103.074219 86.800781 L 102.449219 86.800781 Z M 102.449219 86.226562 "/>
<path style=" stroke:none;fill-rule:nonzero;fill:rgb(13.72549%,10.980392%,11.372549%);fill-opacity:1;" d="M 106.824219 84.476562 L 107.824219 84.476562 L 109.851562 89.699219 L 109.875 89.699219 L 111.898438 84.476562 L 112.925781 84.476562 L 112.925781 90.75 L 112.175781 90.75 L 112.175781 85.601562 L 112.148438 85.601562 C 112.148438 85.601562 111.976562 86.101562 111.875 86.398438 L 110.148438 90.773438 L 109.550781 90.773438 L 107.824219 86.398438 C 107.699219 86.074219 107.550781 85.601562 107.550781 85.601562 L 107.523438 85.601562 L 107.523438 90.75 L 106.824219 90.75 Z M 106.824219 84.476562 "/>
<path style=" stroke:none;fill-rule:nonzero;fill:rgb(13.72549%,10.980392%,11.372549%);fill-opacity:1;" d="M 116.824219 90.125 C 116.550781 90.476562 116.074219 90.851562 115.300781 90.851562 C 114.449219 90.851562 113.773438 90.449219 113.773438 89.574219 C 113.773438 88.5 114.625 88.273438 115.75 88.101562 C 116.398438 88 116.851562 87.949219 116.851562 87.449219 C 116.851562 86.949219 116.476562 86.648438 115.824219 86.648438 C 115.074219 86.648438 114.726562 86.976562 114.699219 87.648438 L 114 87.648438 C 114.023438 86.773438 114.601562 86.125 115.800781 86.125 C 116.773438 86.125 117.476562 86.476562 117.476562 87.574219 L 117.476562 89.726562 C 117.476562 90.101562 117.574219 90.300781 117.949219 90.199219 L 117.976562 90.199219 L 117.976562 90.726562 C 117.875 90.75 117.773438 90.800781 117.601562 90.800781 C 117.148438 90.800781 116.898438 90.601562 116.824219 90.125 M 116.851562 89.074219 L 116.851562 88.300781 C 116.625 88.449219 116.199219 88.574219 115.824219 88.625 C 115.125 88.75 114.550781 88.875 114.550781 89.550781 C 114.550781 90.148438 115.023438 90.300781 115.5 90.300781 C 116.425781 90.300781 116.851562 89.601562 116.851562 89.074219 "/>
<path style=" stroke:none;fill-rule:nonzero;fill:rgb(13.72549%,10.980392%,11.372549%);fill-opacity:1;" d="M 119.226562 86.824219 C 119.574219 86.398438 120.023438 86.125 120.675781 86.125 C 121.625 86.125 122.199219 86.648438 122.199219 87.574219 L 122.199219 90.75 L 121.5 90.75 L 121.5 87.625 C 121.5 87.023438 121.125 86.699219 120.476562 86.699219 C 119.75 86.699219 119.226562 87.199219 119.226562 87.949219 L 119.226562 90.75 L 118.523438 90.75 L 118.523438 86.199219 L 119.226562 86.199219 Z M 119.226562 86.824219 "/>
<path style=" stroke:none;fill-rule:nonzero;fill:rgb(13.72549%,10.980392%,11.372549%);fill-opacity:1;" d="M 125.925781 90.125 C 125.648438 90.476562 125.175781 90.851562 124.398438 90.851562 C 123.550781 90.851562 122.875 90.449219 122.875 89.574219 C 122.875 88.5 123.726562 88.273438 124.851562 88.101562 C 125.5 88 125.949219 87.949219 125.949219 87.449219 C 125.949219 86.949219 125.574219 86.648438 124.925781 86.648438 C 124.175781 86.648438 123.824219 86.976562 123.800781 87.648438 L 123.125 87.648438 C 123.148438 86.773438 123.726562 86.125 124.925781 86.125 C 125.898438 86.125 126.601562 86.476562 126.601562 87.574219 L 126.601562 89.726562 C 126.601562 90.101562 126.699219 90.300781 127.074219 90.199219 L 127.101562 90.199219 L 127.101562 90.726562 C 127 90.75 126.898438 90.800781 126.726562 90.800781 C 126.226562 90.800781 126 90.601562 125.925781 90.125 M 125.949219 89.074219 L 125.949219 88.300781 C 125.726562 88.449219 125.300781 88.574219 124.925781 88.625 C 124.226562 88.75 123.648438 88.875 123.648438 89.550781 C 123.648438 90.148438 124.125 90.300781 124.601562 90.300781 C 125.5 90.300781 125.949219 89.601562 125.949219 89.074219 "/>
<path style=" stroke:none;fill-rule:nonzero;fill:rgb(13.72549%,10.980392%,11.372549%);fill-opacity:1;" d="M 127.425781 91 L 128.074219 91 C 128.148438 91.5 128.625 91.699219 129.324219 91.699219 C 130.148438 91.699219 130.625 91.324219 130.625 90.523438 L 130.625 89.875 L 130.601562 89.875 C 130.273438 90.300781 129.898438 90.574219 129.25 90.574219 C 128.074219 90.574219 127.273438 89.625 127.273438 88.324219 C 127.273438 86.898438 128.148438 86.074219 129.226562 86.074219 C 129.875 86.074219 130.300781 86.324219 130.625 86.75 L 130.648438 86.75 L 130.648438 86.175781 L 131.351562 86.175781 L 131.351562 90.5 C 131.351562 91.699219 130.550781 92.25 129.351562 92.25 C 128.175781 92.273438 127.5 91.800781 127.425781 91 M 130.675781 88.324219 C 130.675781 87.324219 130.25 86.726562 129.273438 86.726562 C 128.425781 86.726562 128 87.398438 128 88.375 C 128 89.375 128.449219 90.023438 129.300781 90.023438 C 130.351562 90 130.675781 89.273438 130.675781 88.324219 "/>
<path style=" stroke:none;fill-rule:nonzero;fill:rgb(13.72549%,10.980392%,11.372549%);fill-opacity:1;" d="M 132.050781 88.5 C 132.050781 87.175781 132.898438 86.101562 134.199219 86.101562 C 135.550781 86.101562 136.300781 87.148438 136.300781 88.648438 L 132.773438 88.648438 C 132.824219 89.574219 133.324219 90.273438 134.25 90.273438 C 134.898438 90.273438 135.351562 89.949219 135.5 89.351562 L 136.199219 89.351562 C 136 90.324219 135.273438 90.875 134.25 90.875 C 132.851562 90.875 132.050781 89.800781 132.050781 88.5 M 132.773438 88.125 L 135.5 88.125 C 135.449219 87.226562 135 86.675781 134.175781 86.675781 C 133.351562 86.675781 132.898438 87.300781 132.773438 88.125 "/>
<path style=" stroke:none;fill-rule:nonzero;fill:rgb(13.72549%,10.980392%,11.372549%);fill-opacity:1;" d="M 136.949219 86.226562 L 137.648438 86.226562 L 137.648438 86.875 L 137.675781 86.875 C 137.949219 86.425781 138.425781 86.125 139 86.125 C 139.550781 86.125 140 86.398438 140.175781 86.925781 L 140.199219 86.925781 C 140.5 86.398438 141.023438 86.125 141.574219 86.125 C 142.375 86.125 142.949219 86.648438 142.949219 87.574219 L 142.949219 90.75 L 142.25 90.75 L 142.25 87.601562 C 142.25 87.050781 141.875 86.699219 141.425781 86.699219 C 140.824219 86.699219 140.300781 87.199219 140.300781 87.925781 L 140.300781 90.75 L 139.601562 90.75 L 139.601562 87.601562 C 139.601562 87.050781 139.273438 86.699219 138.824219 86.699219 C 138.273438 86.699219 137.648438 87.199219 137.648438 87.925781 L 137.648438 90.75 L 136.949219 90.75 Z M 136.949219 86.226562 "/>
<path style=" stroke:none;fill-rule:nonzero;fill:rgb(13.72549%,10.980392%,11.372549%);fill-opacity:1;" d="M 143.675781 88.5 C 143.675781 87.175781 144.523438 86.101562 145.824219 86.101562 C 147.175781 86.101562 147.925781 87.148438 147.925781 88.648438 L 144.398438 88.648438 C 144.449219 89.574219 144.949219 90.273438 145.875 90.273438 C 146.523438 90.273438 146.976562 89.949219 147.125 89.351562 L 147.824219 89.351562 C 147.625 90.324219 146.898438 90.875 145.875 90.875 C 144.476562 90.875 143.675781 89.800781 143.675781 88.5 M 144.398438 88.125 L 147.125 88.125 C 147.074219 87.226562 146.625 86.675781 145.800781 86.675781 C 144.976562 86.675781 144.523438 87.300781 144.398438 88.125 "/>
<path style=" stroke:none;fill-rule:nonzero;fill:rgb(13.72549%,10.980392%,11.372549%);fill-opacity:1;" d="M 149.300781 86.824219 C 149.648438 86.398438 150.101562 86.125 150.75 86.125 C 151.699219 86.125 152.273438 86.648438 152.273438 87.574219 L 152.273438 90.75 L 151.574219 90.75 L 151.574219 87.625 C 151.574219 87.023438 151.199219 86.699219 150.550781 86.699219 C 149.824219 86.699219 149.300781 87.199219 149.300781 87.949219 L 149.300781 90.75 L 148.601562 90.75 L 148.601562 86.199219 L 149.300781 86.199219 Z M 149.300781 86.824219 "/>
<path style=" stroke:none;fill-rule:nonzero;fill:rgb(13.72549%,10.980392%,11.372549%);fill-opacity:1;" d="M 152.773438 86.226562 L 153.425781 86.226562 L 153.425781 84.800781 L 154.125 84.800781 L 154.125 86.226562 L 155 86.226562 L 155 86.800781 L 154.125 86.800781 L 154.125 89.75 C 154.125 90.074219 154.300781 90.175781 154.574219 90.175781 C 154.726562 90.175781 154.875 90.148438 154.949219 90.125 L 154.976562 90.125 L 154.976562 90.75 C 154.800781 90.773438 154.625 90.800781 154.398438 90.800781 C 153.824219 90.800781 153.398438 90.574219 153.398438 89.925781 L 153.398438 86.824219 L 152.75 86.824219 L 152.75 86.226562 Z M 152.773438 86.226562 "/>
</g>
</svg>
