<?xml version="1.0" encoding="UTF-8"?>
<svg xmlns="http://www.w3.org/2000/svg" xmlns:xlink="http://www.w3.org/1999/xlink" width="100px" height="100px" viewBox="0 0 100 100" version="1.1">
<g id="surface1">
<path style=" stroke:none;fill-rule:nonzero;fill:rgb(0%,46.27451%,70.980392%);fill-opacity:1;" d="M 3.082031 40.613281 L 39.785156 40.613281 L 39.785156 58.160156 L 3.082031 58.160156 Z M 3.082031 40.613281 "/>
<path style=" stroke:none;fill-rule:nonzero;fill:rgb(100%,100%,100%);fill-opacity:1;" d="M 8.941406 51.074219 C 8.910156 50.796875 8.925781 50.382812 8.925781 50.183594 L 9.339844 45.398438 L 10.875 45.398438 L 10.445312 50.230469 C 10.351562 51.273438 10.75 52.023438 11.777344 52.023438 C 12.820312 52.023438 13.375 51.273438 13.464844 50.335938 L 13.894531 45.398438 L 15.429688 45.398438 L 15 50.261719 C 14.832031 52.132812 13.605469 53.542969 11.640625 53.542969 C 10.121094 53.558594 9.125 52.546875 8.941406 51.074219 "/>
<path style=" stroke:none;fill-rule:nonzero;fill:rgb(100%,100%,100%);fill-opacity:1;" d="M 15.796875 49.449219 C 15.996094 47.148438 17.515625 45.246094 20.136719 45.246094 C 20.828125 45.246094 21.488281 45.414062 22.148438 45.84375 L 21.980469 47.746094 C 21.378906 46.933594 20.660156 46.792969 19.984375 46.792969 C 18.359375 46.792969 17.453125 47.945312 17.332031 49.417969 C 17.207031 50.84375 17.929688 52.007812 19.507812 52.007812 C 20.199219 52.007812 20.9375 51.808594 21.703125 51.027344 L 21.535156 52.976562 C 20.78125 53.390625 20.09375 53.574219 19.386719 53.574219 C 16.808594 53.574219 15.613281 51.609375 15.796875 49.449219 "/>
<path style=" stroke:none;fill-rule:nonzero;fill:rgb(100%,100%,100%);fill-opacity:1;" d="M 23.390625 45.398438 L 24.921875 45.398438 L 24.371094 51.902344 L 26.5625 51.902344 C 26.71875 51.902344 27.238281 51.886719 27.378906 51.886719 C 27.363281 51.964844 27.238281 53.390625 27.238281 53.390625 L 22.699219 53.390625 Z M 23.390625 45.398438 "/>
<path style=" stroke:none;fill-rule:nonzero;fill:rgb(100%,100%,100%);fill-opacity:1;" d="M 31.363281 48.390625 C 31.410156 48.28125 31.457031 48.128906 31.472656 48.050781 C 31.472656 48.050781 31.503906 48.050781 31.503906 48.050781 C 31.519531 48.160156 31.535156 48.265625 31.5625 48.390625 C 31.640625 48.757812 32.238281 50.765625 32.238281 50.765625 L 30.308594 50.765625 C 30.308594 50.765625 31.351562 48.4375 31.363281 48.390625 M 31.765625 45.046875 L 31.65625 45.046875 L 27.453125 53.390625 L 29.078125 53.390625 L 29.664062 52.117188 L 32.621094 52.117188 L 32.992188 53.390625 L 34.617188 53.390625 Z M 31.765625 45.046875 "/>
<path style=" stroke:none;fill-rule:nonzero;fill:rgb(13.72549%,10.980392%,11.372549%);fill-opacity:1;" d="M 45.460938 42.761719 L 46.917969 42.761719 L 49.355469 49.679688 L 47.898438 49.679688 L 47.4375 48.207031 L 44.9375 48.207031 L 44.480469 49.679688 L 43.050781 49.679688 Z M 45.261719 47.148438 L 47.085938 47.148438 L 46.472656 45.152344 C 46.351562 44.785156 46.195312 44.09375 46.195312 44.09375 L 46.164062 44.09375 C 46.164062 44.09375 45.996094 44.785156 45.875 45.152344 Z M 45.261719 47.148438 "/>
<path style=" stroke:none;fill-rule:nonzero;fill:rgb(13.72549%,10.980392%,11.372549%);fill-opacity:1;" d="M 51.058594 45.398438 L 51.089844 45.398438 C 51.425781 44.863281 51.886719 44.585938 52.5625 44.585938 C 53.589844 44.585938 54.277344 45.351562 54.277344 46.441406 L 54.277344 49.679688 L 52.960938 49.679688 L 52.960938 46.625 C 52.960938 46.089844 52.652344 45.722656 52.101562 45.722656 C 51.519531 45.722656 51.089844 46.179688 51.089844 46.855469 L 51.089844 49.664062 L 49.769531 49.664062 L 49.769531 44.707031 L 51.058594 44.707031 Z M 51.058594 45.398438 "/>
<path style=" stroke:none;fill-rule:nonzero;fill:rgb(13.72549%,10.980392%,11.372549%);fill-opacity:1;" d="M 54.832031 47.207031 C 54.832031 45.660156 55.707031 44.585938 56.949219 44.585938 C 57.636719 44.585938 58.082031 44.90625 58.34375 45.320312 L 58.375 45.320312 L 58.375 42.761719 L 59.691406 42.761719 L 59.691406 49.679688 L 58.4375 49.679688 L 58.4375 49.035156 L 58.421875 49.035156 C 58.128906 49.507812 57.636719 49.832031 56.949219 49.832031 C 55.691406 49.832031 54.832031 48.820312 54.832031 47.207031 M 58.421875 47.238281 C 58.421875 46.289062 58.113281 45.660156 57.269531 45.660156 C 56.550781 45.660156 56.179688 46.304688 56.179688 47.222656 C 56.179688 48.175781 56.5625 48.742188 57.238281 48.742188 C 58.007812 48.726562 58.421875 48.144531 58.421875 47.238281 "/>
<path style=" stroke:none;fill-rule:nonzero;fill:rgb(13.72549%,10.980392%,11.372549%);fill-opacity:1;" d="M 60.292969 47.191406 C 60.292969 45.722656 61.289062 44.585938 62.746094 44.585938 C 64.339844 44.585938 65.199219 45.796875 65.199219 47.578125 L 61.59375 47.578125 C 61.6875 48.34375 62.117188 48.820312 62.867188 48.820312 C 63.375 48.820312 63.679688 48.589844 63.820312 48.207031 L 65.121094 48.207031 C 64.9375 49.078125 64.15625 49.832031 62.882812 49.832031 C 61.226562 49.832031 60.292969 48.679688 60.292969 47.191406 M 61.609375 46.671875 L 63.820312 46.671875 C 63.789062 46.042969 63.359375 45.613281 62.761719 45.613281 C 62.070312 45.597656 61.734375 46.011719 61.609375 46.671875 "/>
<path style=" stroke:none;fill-rule:nonzero;fill:rgb(13.72549%,10.980392%,11.372549%);fill-opacity:1;" d="M 67.054688 45.519531 L 67.085938 45.519531 C 67.394531 44.953125 67.730469 44.679688 68.296875 44.679688 C 68.4375 44.679688 68.527344 44.691406 68.605469 44.722656 L 68.605469 45.875 L 68.574219 45.875 C 67.714844 45.78125 67.101562 46.242188 67.101562 47.285156 L 67.101562 49.707031 L 65.78125 49.707031 L 65.78125 44.753906 L 67.054688 44.753906 Z M 67.054688 45.519531 "/>
<path style=" stroke:none;fill-rule:nonzero;fill:rgb(13.72549%,10.980392%,11.372549%);fill-opacity:1;" d="M 68.820312 48.082031 L 70.03125 48.082031 C 70.121094 48.648438 70.519531 48.910156 71.121094 48.910156 C 71.703125 48.910156 72.023438 48.695312 72.023438 48.34375 C 72.023438 47.867188 71.394531 47.820312 70.722656 47.683594 C 69.832031 47.515625 68.957031 47.269531 68.957031 46.179688 C 68.957031 45.105469 69.847656 44.601562 70.980469 44.601562 C 72.285156 44.601562 73.007812 45.246094 73.113281 46.242188 L 71.917969 46.242188 C 71.855469 45.707031 71.519531 45.519531 70.964844 45.519531 C 70.460938 45.519531 70.121094 45.722656 70.121094 46.074219 C 70.121094 46.503906 70.78125 46.535156 71.488281 46.6875 C 72.316406 46.855469 73.234375 47.085938 73.234375 48.25 C 73.234375 49.25 72.394531 49.847656 71.148438 49.847656 C 69.691406 49.832031 68.894531 49.125 68.820312 48.082031 "/>
<path style=" stroke:none;fill-rule:nonzero;fill:rgb(13.72549%,10.980392%,11.372549%);fill-opacity:1;" d="M 73.527344 47.207031 C 73.527344 45.734375 74.585938 44.585938 76.121094 44.585938 C 77.652344 44.585938 78.710938 45.722656 78.710938 47.207031 C 78.710938 48.679688 77.652344 49.832031 76.121094 49.832031 C 74.585938 49.832031 73.527344 48.679688 73.527344 47.207031 M 77.378906 47.207031 C 77.378906 46.242188 76.917969 45.582031 76.121094 45.582031 C 75.308594 45.582031 74.863281 46.242188 74.863281 47.207031 C 74.863281 48.175781 75.308594 48.820312 76.121094 48.820312 C 76.917969 48.820312 77.378906 48.175781 77.378906 47.207031 "/>
<path style=" stroke:none;fill-rule:nonzero;fill:rgb(13.72549%,10.980392%,11.372549%);fill-opacity:1;" d="M 80.597656 45.398438 L 80.628906 45.398438 C 80.964844 44.863281 81.425781 44.585938 82.101562 44.585938 C 83.128906 44.585938 83.820312 45.351562 83.820312 46.441406 L 83.820312 49.679688 L 82.5 49.679688 L 82.5 46.625 C 82.5 46.089844 82.191406 45.722656 81.640625 45.722656 C 81.058594 45.722656 80.628906 46.179688 80.628906 46.855469 L 80.628906 49.664062 L 79.308594 49.664062 L 79.308594 44.707031 L 80.597656 44.707031 Z M 80.597656 45.398438 "/>
<path style=" stroke:none;fill-rule:nonzero;fill:rgb(13.72549%,10.980392%,11.372549%);fill-opacity:1;" d="M 43.144531 54.371094 L 43.621094 54.371094 C 43.679688 55.015625 44.078125 55.367188 44.816406 55.367188 C 45.351562 55.367188 45.734375 55.121094 45.734375 54.648438 C 45.734375 54.125 45.277344 54.003906 44.585938 53.851562 C 43.910156 53.695312 43.328125 53.511719 43.328125 52.777344 C 43.328125 52.148438 43.851562 51.765625 44.632812 51.765625 C 45.597656 51.765625 45.996094 52.253906 46.089844 52.960938 L 45.628906 52.960938 C 45.550781 52.40625 45.199219 52.132812 44.632812 52.132812 C 44.109375 52.132812 43.757812 52.347656 43.757812 52.746094 C 43.757812 53.175781 44.1875 53.3125 44.769531 53.421875 C 45.519531 53.574219 46.195312 53.757812 46.195312 54.617188 C 46.195312 55.335938 45.613281 55.734375 44.785156 55.734375 C 43.710938 55.75 43.191406 55.152344 43.144531 54.371094 "/>
<path style=" stroke:none;fill-rule:nonzero;fill:rgb(13.72549%,10.980392%,11.372549%);fill-opacity:1;" d="M 46.550781 54.292969 C 46.550781 53.480469 47.070312 52.820312 47.898438 52.820312 C 48.558594 52.820312 48.988281 53.207031 49.09375 53.789062 L 48.648438 53.789062 C 48.589844 53.40625 48.328125 53.175781 47.898438 53.175781 C 47.300781 53.175781 46.992188 53.664062 46.992188 54.277344 C 46.992188 54.894531 47.300781 55.382812 47.898438 55.382812 C 48.34375 55.382812 48.621094 55.121094 48.648438 54.691406 L 49.078125 54.691406 C 49.019531 55.367188 48.589844 55.75 47.882812 55.75 C 47.070312 55.75 46.550781 55.09375 46.550781 54.292969 "/>
<path style=" stroke:none;fill-rule:nonzero;fill:rgb(13.72549%,10.980392%,11.372549%);fill-opacity:1;" d="M 49.9375 53.265625 C 50.152344 53.007812 50.429688 52.835938 50.828125 52.835938 C 51.410156 52.835938 51.765625 53.160156 51.765625 53.726562 L 51.765625 55.675781 L 51.335938 55.675781 L 51.335938 53.757812 C 51.335938 53.390625 51.105469 53.191406 50.707031 53.191406 C 50.261719 53.191406 49.9375 53.496094 49.9375 53.957031 L 49.9375 55.675781 L 49.507812 55.675781 L 49.507812 51.824219 L 49.9375 51.824219 Z M 49.9375 53.265625 "/>
<path style=" stroke:none;fill-rule:nonzero;fill:rgb(13.72549%,10.980392%,11.372549%);fill-opacity:1;" d="M 52.179688 54.292969 C 52.179688 53.480469 52.699219 52.820312 53.527344 52.820312 C 54.355469 52.820312 54.878906 53.480469 54.878906 54.292969 C 54.878906 55.105469 54.371094 55.765625 53.527344 55.765625 C 52.699219 55.75 52.179688 55.09375 52.179688 54.292969 M 54.417969 54.292969 C 54.417969 53.679688 54.109375 53.191406 53.527344 53.191406 C 52.929688 53.191406 52.621094 53.679688 52.621094 54.292969 C 52.621094 54.90625 52.929688 55.398438 53.527344 55.398438 C 54.125 55.382812 54.417969 54.90625 54.417969 54.292969 "/>
<path style=" stroke:none;fill-rule:nonzero;fill:rgb(13.72549%,10.980392%,11.372549%);fill-opacity:1;" d="M 55.152344 54.292969 C 55.152344 53.480469 55.675781 52.820312 56.503906 52.820312 C 57.332031 52.820312 57.835938 53.480469 57.835938 54.292969 C 57.835938 55.105469 57.332031 55.765625 56.503906 55.765625 C 55.660156 55.75 55.152344 55.09375 55.152344 54.292969 M 57.394531 54.292969 C 57.394531 53.679688 57.085938 53.191406 56.503906 53.191406 C 55.90625 53.191406 55.597656 53.679688 55.597656 54.292969 C 55.597656 54.90625 55.90625 55.398438 56.503906 55.398438 C 57.085938 55.382812 57.394531 54.90625 57.394531 54.292969 "/>
<path style=" stroke:none;fill-rule:nonzero;fill:rgb(13.72549%,10.980392%,11.372549%);fill-opacity:1;" d="M 58.28125 51.824219 L 58.710938 51.824219 L 58.710938 55.675781 L 58.28125 55.675781 Z M 58.28125 51.824219 "/>
<path style=" stroke:none;fill-rule:nonzero;fill:rgb(13.72549%,10.980392%,11.372549%);fill-opacity:1;" d="M 60.015625 54.292969 C 60.015625 53.480469 60.535156 52.820312 61.363281 52.820312 C 62.191406 52.820312 62.699219 53.480469 62.699219 54.292969 C 62.699219 55.105469 62.191406 55.765625 61.363281 55.765625 C 60.535156 55.75 60.015625 55.09375 60.015625 54.292969 M 62.253906 54.292969 C 62.253906 53.679688 61.949219 53.191406 61.363281 53.191406 C 60.765625 53.191406 60.460938 53.679688 60.460938 54.292969 C 60.460938 54.90625 60.765625 55.398438 61.363281 55.398438 C 61.964844 55.382812 62.253906 54.90625 62.253906 54.292969 "/>
<path style=" stroke:none;fill-rule:nonzero;fill:rgb(13.72549%,10.980392%,11.372549%);fill-opacity:1;" d="M 62.851562 52.898438 L 63.234375 52.898438 L 63.234375 52.453125 C 63.234375 51.980469 63.511719 51.808594 63.972656 51.808594 C 64.0625 51.808594 64.140625 51.808594 64.1875 51.824219 L 64.1875 52.191406 C 64.109375 52.191406 64.09375 52.191406 64.050781 52.191406 C 63.773438 52.191406 63.664062 52.269531 63.664062 52.484375 L 63.664062 52.914062 L 64.1875 52.914062 L 64.1875 53.265625 L 63.664062 53.265625 L 63.664062 55.675781 L 63.234375 55.675781 L 63.234375 53.25 L 62.851562 53.25 Z M 62.851562 52.898438 "/>
<path style=" stroke:none;fill-rule:nonzero;fill:rgb(13.72549%,10.980392%,11.372549%);fill-opacity:1;" d="M 65.535156 51.824219 L 66.148438 51.824219 L 67.394531 55.03125 L 67.40625 55.03125 L 68.648438 51.824219 L 69.277344 51.824219 L 69.277344 55.675781 L 68.820312 55.675781 L 68.820312 52.515625 L 68.804688 52.515625 C 68.804688 52.515625 68.695312 52.820312 68.636719 53.007812 L 67.578125 55.691406 L 67.207031 55.691406 L 66.148438 53.007812 C 66.074219 52.808594 65.980469 52.515625 65.980469 52.515625 L 65.964844 52.515625 L 65.964844 55.675781 L 65.535156 55.675781 Z M 65.535156 51.824219 "/>
<path style=" stroke:none;fill-rule:nonzero;fill:rgb(13.72549%,10.980392%,11.372549%);fill-opacity:1;" d="M 71.671875 55.292969 C 71.503906 55.507812 71.210938 55.734375 70.734375 55.734375 C 70.214844 55.734375 69.800781 55.492188 69.800781 54.953125 C 69.800781 54.292969 70.320312 54.15625 71.011719 54.050781 C 71.410156 53.988281 71.6875 53.957031 71.6875 53.648438 C 71.6875 53.34375 71.457031 53.160156 71.058594 53.160156 C 70.597656 53.160156 70.382812 53.359375 70.367188 53.773438 L 69.9375 53.773438 C 69.953125 53.234375 70.308594 52.835938 71.042969 52.835938 C 71.640625 52.835938 72.070312 53.050781 72.070312 53.726562 L 72.070312 55.046875 C 72.070312 55.277344 72.132812 55.398438 72.363281 55.335938 L 72.378906 55.335938 L 72.378906 55.660156 C 72.316406 55.675781 72.253906 55.707031 72.148438 55.707031 C 71.871094 55.707031 71.71875 55.582031 71.671875 55.292969 M 71.6875 54.648438 L 71.6875 54.171875 C 71.550781 54.265625 71.289062 54.339844 71.058594 54.371094 C 70.628906 54.449219 70.277344 54.523438 70.277344 54.9375 C 70.277344 55.308594 70.566406 55.398438 70.859375 55.398438 C 71.425781 55.398438 71.6875 54.96875 71.6875 54.648438 "/>
<path style=" stroke:none;fill-rule:nonzero;fill:rgb(13.72549%,10.980392%,11.372549%);fill-opacity:1;" d="M 73.144531 53.265625 C 73.359375 53.007812 73.636719 52.835938 74.035156 52.835938 C 74.617188 52.835938 74.96875 53.160156 74.96875 53.726562 L 74.96875 55.675781 L 74.539062 55.675781 L 74.539062 53.757812 C 74.539062 53.390625 74.308594 53.191406 73.910156 53.191406 C 73.464844 53.191406 73.144531 53.496094 73.144531 53.957031 L 73.144531 55.675781 L 72.714844 55.675781 L 72.714844 52.882812 L 73.144531 52.882812 Z M 73.144531 53.265625 "/>
<path style=" stroke:none;fill-rule:nonzero;fill:rgb(13.72549%,10.980392%,11.372549%);fill-opacity:1;" d="M 77.253906 55.292969 C 77.085938 55.507812 76.792969 55.734375 76.320312 55.734375 C 75.796875 55.734375 75.382812 55.492188 75.382812 54.953125 C 75.382812 54.292969 75.90625 54.15625 76.59375 54.050781 C 76.992188 53.988281 77.269531 53.957031 77.269531 53.648438 C 77.269531 53.34375 77.039062 53.160156 76.640625 53.160156 C 76.179688 53.160156 75.964844 53.359375 75.949219 53.773438 L 75.535156 53.773438 C 75.550781 53.234375 75.90625 52.835938 76.640625 52.835938 C 77.238281 52.835938 77.667969 53.050781 77.667969 53.726562 L 77.667969 55.046875 C 77.667969 55.277344 77.730469 55.398438 77.960938 55.335938 L 77.976562 55.335938 L 77.976562 55.660156 C 77.914062 55.675781 77.851562 55.707031 77.746094 55.707031 C 77.4375 55.707031 77.300781 55.582031 77.253906 55.292969 M 77.269531 54.648438 L 77.269531 54.171875 C 77.132812 54.265625 76.871094 54.339844 76.640625 54.371094 C 76.210938 54.449219 75.859375 54.523438 75.859375 54.9375 C 75.859375 55.308594 76.148438 55.398438 76.441406 55.398438 C 76.992188 55.398438 77.269531 54.96875 77.269531 54.648438 "/>
<path style=" stroke:none;fill-rule:nonzero;fill:rgb(13.72549%,10.980392%,11.372549%);fill-opacity:1;" d="M 78.175781 55.828125 L 78.574219 55.828125 C 78.621094 56.136719 78.910156 56.257812 79.339844 56.257812 C 79.847656 56.257812 80.136719 56.027344 80.136719 55.535156 L 80.136719 55.136719 L 80.121094 55.136719 C 79.921875 55.398438 79.691406 55.566406 79.292969 55.566406 C 78.574219 55.566406 78.082031 54.984375 78.082031 54.1875 C 78.082031 53.3125 78.621094 52.808594 79.277344 52.808594 C 79.679688 52.808594 79.9375 52.960938 80.136719 53.222656 L 80.152344 53.222656 L 80.152344 52.867188 L 80.582031 52.867188 L 80.582031 55.519531 C 80.582031 56.257812 80.09375 56.59375 79.355469 56.59375 C 78.636719 56.609375 78.222656 56.320312 78.175781 55.828125 M 80.167969 54.1875 C 80.167969 53.574219 79.90625 53.207031 79.308594 53.207031 C 78.789062 53.207031 78.527344 53.621094 78.527344 54.21875 C 78.527344 54.832031 78.804688 55.230469 79.324219 55.230469 C 79.96875 55.214844 80.167969 54.769531 80.167969 54.1875 "/>
<path style=" stroke:none;fill-rule:nonzero;fill:rgb(13.72549%,10.980392%,11.372549%);fill-opacity:1;" d="M 81.011719 54.292969 C 81.011719 53.480469 81.535156 52.820312 82.332031 52.820312 C 83.160156 52.820312 83.621094 53.464844 83.621094 54.386719 L 81.457031 54.386719 C 81.488281 54.953125 81.792969 55.382812 82.363281 55.382812 C 82.761719 55.382812 83.035156 55.183594 83.128906 54.816406 L 83.558594 54.816406 C 83.4375 55.414062 82.992188 55.75 82.363281 55.75 C 81.503906 55.75 81.011719 55.09375 81.011719 54.292969 M 81.457031 54.0625 L 83.128906 54.0625 C 83.097656 53.511719 82.820312 53.175781 82.316406 53.175781 C 81.808594 53.175781 81.535156 53.558594 81.457031 54.0625 "/>
<path style=" stroke:none;fill-rule:nonzero;fill:rgb(13.72549%,10.980392%,11.372549%);fill-opacity:1;" d="M 84.019531 52.898438 L 84.449219 52.898438 L 84.449219 53.296875 L 84.464844 53.296875 C 84.632812 53.019531 84.921875 52.835938 85.277344 52.835938 C 85.613281 52.835938 85.890625 53.007812 85.996094 53.328125 L 86.011719 53.328125 C 86.195312 53.007812 86.519531 52.835938 86.855469 52.835938 C 87.347656 52.835938 87.699219 53.160156 87.699219 53.726562 L 87.699219 55.675781 L 87.269531 55.675781 L 87.269531 53.742188 C 87.269531 53.40625 87.039062 53.191406 86.765625 53.191406 C 86.394531 53.191406 86.074219 53.496094 86.074219 53.941406 L 86.074219 55.675781 L 85.644531 55.675781 L 85.644531 53.742188 C 85.644531 53.40625 85.445312 53.191406 85.167969 53.191406 C 84.832031 53.191406 84.449219 53.496094 84.449219 53.941406 L 84.449219 55.675781 L 84.019531 55.675781 Z M 84.019531 52.898438 "/>
<path style=" stroke:none;fill-rule:nonzero;fill:rgb(13.72549%,10.980392%,11.372549%);fill-opacity:1;" d="M 88.144531 54.292969 C 88.144531 53.480469 88.664062 52.820312 89.464844 52.820312 C 90.292969 52.820312 90.75 53.464844 90.75 54.386719 L 88.589844 54.386719 C 88.621094 54.953125 88.925781 55.382812 89.492188 55.382812 C 89.894531 55.382812 90.167969 55.183594 90.261719 54.816406 L 90.691406 54.816406 C 90.566406 55.414062 90.121094 55.75 89.492188 55.75 C 88.636719 55.75 88.144531 55.09375 88.144531 54.292969 M 88.589844 54.0625 L 90.261719 54.0625 C 90.230469 53.511719 89.953125 53.175781 89.449219 53.175781 C 88.941406 53.175781 88.664062 53.558594 88.589844 54.0625 "/>
<path style=" stroke:none;fill-rule:nonzero;fill:rgb(13.72549%,10.980392%,11.372549%);fill-opacity:1;" d="M 91.59375 53.265625 C 91.808594 53.007812 92.085938 52.835938 92.484375 52.835938 C 93.066406 52.835938 93.421875 53.160156 93.421875 53.726562 L 93.421875 55.675781 L 92.992188 55.675781 L 92.992188 53.757812 C 92.992188 53.390625 92.761719 53.191406 92.363281 53.191406 C 91.917969 53.191406 91.59375 53.496094 91.59375 53.957031 L 91.59375 55.675781 L 91.164062 55.675781 L 91.164062 52.882812 L 91.59375 52.882812 Z M 91.59375 53.265625 "/>
<path style=" stroke:none;fill-rule:nonzero;fill:rgb(13.72549%,10.980392%,11.372549%);fill-opacity:1;" d="M 93.726562 52.898438 L 94.125 52.898438 L 94.125 52.023438 L 94.554688 52.023438 L 94.554688 52.898438 L 95.09375 52.898438 L 95.09375 53.25 L 94.554688 53.25 L 94.554688 55.0625 C 94.554688 55.261719 94.664062 55.320312 94.832031 55.320312 C 94.921875 55.320312 95.015625 55.308594 95.0625 55.292969 L 95.078125 55.292969 L 95.078125 55.675781 C 94.96875 55.691406 94.863281 55.707031 94.722656 55.707031 C 94.371094 55.707031 94.109375 55.566406 94.109375 55.167969 L 94.109375 53.265625 L 93.710938 53.265625 L 93.710938 52.898438 Z M 93.726562 52.898438 "/>
</g>
</svg>
