<?xml version="1.0" standalone="no"?>
<!DOCTYPE svg PUBLIC "-//W3C//DTD SVG 1.0//EN" "http://www.w3.org/TR/2001/REC-SVG-20010904/DTD/svg10.dtd">
<svg xmlns="http://www.w3.org/2000/svg" xmlns:xlink="http://www.w3.org/1999/xlink" id="body_1" width="84" height="84">

<g transform="matrix(0.84000003 0 0 0.84000003 0 0)">
	<g>
        <path d="M3.082031 40.61328L39.785156 40.61328L39.785156 58.160156L3.082031 58.160156L3.082031 40.61328z" stroke="none" fill="#0076B5" fill-rule="nonzero" />
        <path d="M8.941406 51.07422C 8.910156 50.796875 8.925781 50.382812 8.925781 50.183594L8.925781 50.183594L9.339844 45.398438L10.875 45.398438L10.445312 50.23047C 10.351562 51.273438 10.75 52.023438 11.777344 52.023438C 12.820312 52.023438 13.375 51.273438 13.464844 50.335938L13.464844 50.335938L13.894531 45.398438L15.429688 45.398438L15 50.26172C 14.832031 52.132812 13.605469 53.54297 11.640625 53.54297C 10.121094 53.558594 9.125 52.546875 8.941406 51.07422" stroke="none" fill="#FFFFFF" fill-rule="nonzero" />
        <path d="M15.796875 49.44922C 15.996094 47.148438 17.515625 45.246094 20.136719 45.246094C 20.828125 45.246094 21.488281 45.414062 22.148438 45.84375L22.148438 45.84375L21.980469 47.746094C 21.378906 46.933594 20.660156 46.79297 19.984375 46.79297C 18.359375 46.79297 17.453125 47.945312 17.332031 49.41797C 17.207031 50.84375 17.929688 52.007812 19.507812 52.007812C 20.199219 52.007812 20.9375 51.808594 21.703125 51.027344L21.703125 51.027344L21.535156 52.976562C 20.78125 53.390625 20.09375 53.57422 19.386719 53.57422C 16.808594 53.57422 15.613281 51.609375 15.796875 49.44922" stroke="none" fill="#FFFFFF" fill-rule="nonzero" />
        <path d="M23.390625 45.398438L24.921875 45.398438L24.371094 51.902344L26.5625 51.902344C 26.71875 51.902344 27.238281 51.88672 27.378906 51.88672C 27.363281 51.964844 27.238281 53.390625 27.238281 53.390625L27.238281 53.390625L22.699219 53.390625L23.390625 45.398438z" stroke="none" fill="#FFFFFF" fill-rule="nonzero" />
        <path d="M31.363281 48.390625C 31.410156 48.28125 31.457031 48.128906 31.472656 48.05078C 31.472656 48.05078 31.503906 48.05078 31.503906 48.05078C 31.519531 48.160156 31.535156 48.265625 31.5625 48.390625C 31.640625 48.757812 32.23828 50.765625 32.23828 50.765625L32.23828 50.765625L30.308594 50.765625C 30.308594 50.765625 31.351562 48.4375 31.363281 48.390625zM31.765625 45.046875L31.65625 45.046875L27.453125 53.390625L29.078125 53.390625L29.664062 52.117188L32.621094 52.117188L32.992188 53.390625L34.617188 53.390625z" stroke="none" fill="#FFFFFF" fill-rule="nonzero" />
        <path d="M45.460938 42.76172L46.91797 42.76172L49.35547 49.679688L47.898438 49.679688L47.4375 48.20703L44.9375 48.20703L44.48047 49.679688L43.05078 49.679688L45.460938 42.76172zM45.26172 47.148438L47.085938 47.148438L46.472656 45.152344C 46.351562 44.785156 46.195312 44.09375 46.195312 44.09375L46.195312 44.09375L46.164062 44.09375C 46.164062 44.09375 45.996094 44.785156 45.875 45.152344z" stroke="none" fill="#231C1D" fill-rule="nonzero" />
        <path d="M51.058594 45.398438L51.089844 45.398438C 51.42578 44.86328 51.88672 44.585938 52.5625 44.585938C 53.589844 44.585938 54.277344 45.351562 54.277344 46.441406L54.277344 46.441406L54.277344 49.679688L52.960938 49.679688L52.960938 46.625C 52.960938 46.089844 52.652344 45.722656 52.101562 45.722656C 51.51953 45.722656 51.089844 46.179688 51.089844 46.85547L51.089844 46.85547L51.089844 49.664062L49.76953 49.664062L49.76953 44.70703L51.058594 44.70703L51.058594 45.398438z" stroke="none" fill="#231C1D" fill-rule="nonzero" />
        <path d="M54.83203 47.20703C 54.83203 45.660156 55.70703 44.585938 56.94922 44.585938C 57.63672 44.585938 58.08203 44.90625 58.34375 45.320312L58.34375 45.320312L58.375 45.320312L58.375 42.76172L59.691406 42.76172L59.691406 49.679688L58.4375 49.679688L58.4375 49.035156L58.421875 49.035156C 58.128906 49.507812 57.63672 49.83203 56.94922 49.83203C 55.691406 49.83203 54.83203 48.820312 54.83203 47.20703M58.421875 47.23828C 58.421875 46.289062 58.11328 45.660156 57.26953 45.660156C 56.55078 45.660156 56.179688 46.304688 56.179688 47.222656C 56.179688 48.17578 56.5625 48.742188 57.23828 48.742188C 58.007812 48.726562 58.421875 48.14453 58.421875 47.23828" stroke="none" fill="#231C1D" fill-rule="nonzero" />
        <path d="M60.29297 47.191406C 60.29297 45.722656 61.289062 44.585938 62.746094 44.585938C 64.33984 44.585938 65.19922 45.796875 65.19922 47.578125L65.19922 47.578125L61.59375 47.578125C 61.6875 48.34375 62.117188 48.820312 62.867188 48.820312C 63.375 48.820312 63.679688 48.589844 63.820312 48.20703L63.820312 48.20703L65.12109 48.20703C 64.9375 49.078125 64.15625 49.83203 62.882812 49.83203C 61.226562 49.83203 60.29297 48.679688 60.29297 47.191406M61.609375 46.671875L63.820312 46.671875C 63.789062 46.04297 63.359375 45.61328 62.76172 45.61328C 62.070312 45.597656 61.734375 46.01172 61.609375 46.671875" stroke="none" fill="#231C1D" fill-rule="nonzero" />
        <path d="M67.05469 45.51953L67.08594 45.51953C 67.39453 44.953125 67.73047 44.679688 68.296875 44.679688C 68.4375 44.679688 68.52734 44.691406 68.60547 44.722656L68.60547 44.722656L68.60547 45.875L68.57422 45.875C 67.71484 45.78125 67.10156 46.242188 67.10156 47.285156L67.10156 47.285156L67.10156 49.70703L65.78125 49.70703L65.78125 44.753906L67.05469 44.753906L67.05469 45.51953z" stroke="none" fill="#231C1D" fill-rule="nonzero" />
        <path d="M68.82031 48.08203L70.03125 48.08203C 70.12109 48.648438 70.51953 48.910156 71.12109 48.910156C 71.703125 48.910156 72.02344 48.695312 72.02344 48.34375C 72.02344 47.867188 71.39453 47.820312 70.72266 47.683594C 69.83203 47.515625 68.95703 47.26953 68.95703 46.179688C 68.95703 45.10547 69.84766 44.601562 70.98047 44.601562C 72.28516 44.601562 73.00781 45.246094 73.11328 46.242188L73.11328 46.242188L71.91797 46.242188C 71.85547 45.70703 71.51953 45.51953 70.96484 45.51953C 70.46094 45.51953 70.12109 45.722656 70.12109 46.07422C 70.12109 46.503906 70.78125 46.535156 71.48828 46.6875C 72.31641 46.85547 73.234375 47.085938 73.234375 48.25C 73.234375 49.25 72.39453 49.847656 71.14844 49.847656C 69.69141 49.83203 68.89453 49.125 68.82031 48.08203" stroke="none" fill="#231C1D" fill-rule="nonzero" />
        <path d="M73.52734 47.20703C 73.52734 45.734375 74.58594 44.585938 76.12109 44.585938C 77.65234 44.585938 78.71094 45.722656 78.71094 47.20703C 78.71094 48.679688 77.65234 49.83203 76.12109 49.83203C 74.58594 49.83203 73.52734 48.679688 73.52734 47.20703M77.37891 47.20703C 77.37891 46.242188 76.91797 45.58203 76.12109 45.58203C 75.30859 45.58203 74.86328 46.242188 74.86328 47.20703C 74.86328 48.17578 75.30859 48.820312 76.12109 48.820312C 76.91797 48.820312 77.37891 48.17578 77.37891 47.20703" stroke="none" fill="#231C1D" fill-rule="nonzero" />
        <path d="M80.59766 45.398438L80.62891 45.398438C 80.96484 44.86328 81.42578 44.585938 82.10156 44.585938C 83.12891 44.585938 83.82031 45.351562 83.82031 46.441406L83.82031 46.441406L83.82031 49.679688L82.5 49.679688L82.5 46.625C 82.5 46.089844 82.19141 45.722656 81.640625 45.722656C 81.05859 45.722656 80.62891 46.179688 80.62891 46.85547L80.62891 46.85547L80.62891 49.664062L79.30859 49.664062L79.30859 44.70703L80.59766 44.70703L80.59766 45.398438z" stroke="none" fill="#231C1D" fill-rule="nonzero" />
        <path d="M43.14453 54.371094L43.621094 54.371094C 43.679688 55.015625 44.078125 55.367188 44.816406 55.367188C 45.351562 55.367188 45.734375 55.121094 45.734375 54.648438C 45.734375 54.125 45.277344 54.003906 44.585938 53.851562C 43.910156 53.695312 43.328125 53.51172 43.328125 52.777344C 43.328125 52.148438 43.851562 51.765625 44.632812 51.765625C 45.597656 51.765625 45.996094 52.253906 46.089844 52.960938L46.089844 52.960938L45.628906 52.960938C 45.55078 52.40625 45.19922 52.132812 44.632812 52.132812C 44.109375 52.132812 43.757812 52.347656 43.757812 52.746094C 43.757812 53.17578 44.1875 53.3125 44.76953 53.421875C 45.51953 53.57422 46.195312 53.757812 46.195312 54.617188C 46.195312 55.335938 45.61328 55.734375 44.785156 55.734375C 43.710938 55.75 43.191406 55.152344 43.14453 54.371094" stroke="none" fill="#231C1D" fill-rule="nonzero" />
        <path d="M46.55078 54.29297C 46.55078 53.48047 47.070312 52.820312 47.898438 52.820312C 48.558594 52.820312 48.98828 53.20703 49.09375 53.789062L49.09375 53.789062L48.648438 53.789062C 48.589844 53.40625 48.328125 53.17578 47.898438 53.17578C 47.30078 53.17578 46.992188 53.664062 46.992188 54.277344C 46.992188 54.89453 47.30078 55.382812 47.898438 55.382812C 48.34375 55.382812 48.621094 55.121094 48.648438 54.691406L48.648438 54.691406L49.078125 54.691406C 49.01953 55.367188 48.589844 55.75 47.882812 55.75C 47.070312 55.75 46.55078 55.09375 46.55078 54.29297" stroke="none" fill="#231C1D" fill-rule="nonzero" />
        <path d="M49.9375 53.265625C 50.152344 53.007812 50.429688 52.835938 50.828125 52.835938C 51.410156 52.835938 51.765625 53.160156 51.765625 53.726562L51.765625 53.726562L51.765625 55.67578L51.335938 55.67578L51.335938 53.757812C 51.335938 53.390625 51.10547 53.191406 50.70703 53.191406C 50.26172 53.191406 49.9375 53.496094 49.9375 53.95703L49.9375 53.95703L49.9375 55.67578L49.507812 55.67578L49.507812 51.82422L49.9375 51.82422L49.9375 53.265625z" stroke="none" fill="#231C1D" fill-rule="nonzero" />
        <path d="M52.179688 54.29297C 52.179688 53.48047 52.69922 52.820312 53.527344 52.820312C 54.35547 52.820312 54.878906 53.48047 54.878906 54.29297C 54.878906 55.10547 54.371094 55.765625 53.527344 55.765625C 52.69922 55.75 52.179688 55.09375 52.179688 54.29297M54.41797 54.29297C 54.41797 53.679688 54.109375 53.191406 53.527344 53.191406C 52.929688 53.191406 52.621094 53.679688 52.621094 54.29297C 52.621094 54.90625 52.929688 55.398438 53.527344 55.398438C 54.125 55.382812 54.41797 54.90625 54.41797 54.29297" stroke="none" fill="#231C1D" fill-rule="nonzero" />
        <path d="M55.152344 54.29297C 55.152344 53.48047 55.67578 52.820312 56.503906 52.820312C 57.33203 52.820312 57.835938 53.48047 57.835938 54.29297C 57.835938 55.10547 57.33203 55.765625 56.503906 55.765625C 55.660156 55.75 55.152344 55.09375 55.152344 54.29297M57.39453 54.29297C 57.39453 53.679688 57.085938 53.191406 56.503906 53.191406C 55.90625 53.191406 55.597656 53.679688 55.597656 54.29297C 55.597656 54.90625 55.90625 55.398438 56.503906 55.398438C 57.085938 55.382812 57.39453 54.90625 57.39453 54.29297" stroke="none" fill="#231C1D" fill-rule="nonzero" />
        <path d="M58.28125 51.82422L58.710938 51.82422L58.710938 55.67578L58.28125 55.67578L58.28125 51.82422z" stroke="none" fill="#231C1D" fill-rule="nonzero" />
        <path d="M60.015625 54.29297C 60.015625 53.48047 60.535156 52.820312 61.36328 52.820312C 62.191406 52.820312 62.69922 53.48047 62.69922 54.29297C 62.69922 55.10547 62.191406 55.765625 61.36328 55.765625C 60.535156 55.75 60.015625 55.09375 60.015625 54.29297M62.253906 54.29297C 62.253906 53.679688 61.94922 53.191406 61.36328 53.191406C 60.765625 53.191406 60.460938 53.679688 60.460938 54.29297C 60.460938 54.90625 60.765625 55.398438 61.36328 55.398438C 61.964844 55.382812 62.253906 54.90625 62.253906 54.29297" stroke="none" fill="#231C1D" fill-rule="nonzero" />
        <path d="M62.851562 52.898438L63.234375 52.898438L63.234375 52.453125C 63.234375 51.98047 63.51172 51.808594 63.972656 51.808594C 64.0625 51.808594 64.140625 51.808594 64.1875 51.82422L64.1875 51.82422L64.1875 52.191406C 64.109375 52.191406 64.09375 52.191406 64.05078 52.191406C 63.773438 52.191406 63.664062 52.26953 63.664062 52.484375L63.664062 52.484375L63.664062 52.914062L64.1875 52.914062L64.1875 53.265625L63.664062 53.265625L63.664062 55.67578L63.234375 55.67578L63.234375 53.25L62.851562 53.25L62.851562 52.898438z" stroke="none" fill="#231C1D" fill-rule="nonzero" />
        <path d="M65.53516 51.82422L66.14844 51.82422L67.39453 55.03125L67.40625 55.03125L68.64844 51.82422L69.27734 51.82422L69.27734 55.67578L68.82031 55.67578L68.82031 52.515625L68.80469 52.515625C 68.80469 52.515625 68.69531 52.820312 68.63672 53.007812L68.63672 53.007812L67.578125 55.691406L67.20703 55.691406L66.14844 53.007812C 66.07422 52.808594 65.98047 52.515625 65.98047 52.515625L65.98047 52.515625L65.96484 52.515625L65.96484 55.67578L65.53516 55.67578L65.53516 51.82422z" stroke="none" fill="#231C1D" fill-rule="nonzero" />
        <path d="M71.671875 55.29297C 71.50391 55.507812 71.21094 55.734375 70.734375 55.734375C 70.21484 55.734375 69.80078 55.492188 69.80078 54.953125C 69.80078 54.29297 70.32031 54.15625 71.01172 54.05078C 71.41016 53.98828 71.6875 53.95703 71.6875 53.648438C 71.6875 53.34375 71.45703 53.160156 71.05859 53.160156C 70.59766 53.160156 70.38281 53.359375 70.36719 53.773438L70.36719 53.773438L69.9375 53.773438C 69.953125 53.234375 70.30859 52.835938 71.04297 52.835938C 71.640625 52.835938 72.07031 53.05078 72.07031 53.726562L72.07031 53.726562L72.07031 55.046875C 72.07031 55.277344 72.13281 55.398438 72.36328 55.335938L72.36328 55.335938L72.37891 55.335938L72.37891 55.660156C 72.31641 55.67578 72.25391 55.70703 72.14844 55.70703C 71.87109 55.70703 71.71875 55.58203 71.671875 55.29297M71.6875 54.648438L71.6875 54.171875C 71.55078 54.265625 71.28906 54.339844 71.05859 54.371094C 70.62891 54.44922 70.27734 54.523438 70.27734 54.9375C 70.27734 55.308594 70.56641 55.398438 70.859375 55.398438C 71.42578 55.398438 71.6875 54.96875 71.6875 54.648438" stroke="none" fill="#231C1D" fill-rule="nonzero" />
        <path d="M73.14453 53.265625C 73.359375 53.007812 73.63672 52.835938 74.03516 52.835938C 74.61719 52.835938 74.96875 53.160156 74.96875 53.726562L74.96875 53.726562L74.96875 55.67578L74.53906 55.67578L74.53906 53.757812C 74.53906 53.390625 74.30859 53.191406 73.91016 53.191406C 73.46484 53.191406 73.14453 53.496094 73.14453 53.95703L73.14453 53.95703L73.14453 55.67578L72.71484 55.67578L72.71484 52.882812L73.14453 52.882812L73.14453 53.265625z" stroke="none" fill="#231C1D" fill-rule="nonzero" />
        <path d="M77.25391 55.29297C 77.08594 55.507812 76.79297 55.734375 76.32031 55.734375C 75.796875 55.734375 75.38281 55.492188 75.38281 54.953125C 75.38281 54.29297 75.90625 54.15625 76.59375 54.05078C 76.99219 53.98828 77.26953 53.95703 77.26953 53.648438C 77.26953 53.34375 77.03906 53.160156 76.640625 53.160156C 76.17969 53.160156 75.96484 53.359375 75.94922 53.773438L75.94922 53.773438L75.53516 53.773438C 75.55078 53.234375 75.90625 52.835938 76.640625 52.835938C 77.23828 52.835938 77.66797 53.05078 77.66797 53.726562L77.66797 53.726562L77.66797 55.046875C 77.66797 55.277344 77.73047 55.398438 77.96094 55.335938L77.96094 55.335938L77.97656 55.335938L77.97656 55.660156C 77.91406 55.67578 77.85156 55.70703 77.74609 55.70703C 77.4375 55.70703 77.30078 55.58203 77.25391 55.29297M77.26953 54.648438L77.26953 54.171875C 77.13281 54.265625 76.87109 54.339844 76.640625 54.371094C 76.21094 54.44922 75.859375 54.523438 75.859375 54.9375C 75.859375 55.308594 76.14844 55.398438 76.44141 55.398438C 76.99219 55.398438 77.26953 54.96875 77.26953 54.648438" stroke="none" fill="#231C1D" fill-rule="nonzero" />
        <path d="M78.17578 55.828125L78.57422 55.828125C 78.62109 56.13672 78.91016 56.257812 79.33984 56.257812C 79.84766 56.257812 80.13672 56.027344 80.13672 55.535156L80.13672 55.535156L80.13672 55.13672L80.12109 55.13672C 79.921875 55.398438 79.69141 55.566406 79.29297 55.566406C 78.57422 55.566406 78.08203 54.984375 78.08203 54.1875C 78.08203 53.3125 78.62109 52.808594 79.27734 52.808594C 79.67969 52.808594 79.9375 52.960938 80.13672 53.222656L80.13672 53.222656L80.15234 53.222656L80.15234 52.867188L80.58203 52.867188L80.58203 55.51953C 80.58203 56.257812 80.09375 56.59375 79.35547 56.59375C 78.63672 56.609375 78.22266 56.320312 78.17578 55.828125M80.16797 54.1875C 80.16797 53.57422 79.90625 53.20703 79.30859 53.20703C 78.78906 53.20703 78.52734 53.621094 78.52734 54.21875C 78.52734 54.83203 78.80469 55.23047 79.32422 55.23047C 79.96875 55.214844 80.16797 54.76953 80.16797 54.1875" stroke="none" fill="#231C1D" fill-rule="nonzero" />
        <path d="M81.01172 54.29297C 81.01172 53.48047 81.53516 52.820312 82.33203 52.820312C 83.16016 52.820312 83.62109 53.464844 83.62109 54.38672L83.62109 54.38672L81.45703 54.38672C 81.48828 54.953125 81.79297 55.382812 82.36328 55.382812C 82.76172 55.382812 83.03516 55.183594 83.12891 54.816406L83.12891 54.816406L83.55859 54.816406C 83.4375 55.414062 82.99219 55.75 82.36328 55.75C 81.50391 55.75 81.01172 55.09375 81.01172 54.29297M81.45703 54.0625L83.12891 54.0625C 83.09766 53.51172 82.82031 53.17578 82.31641 53.17578C 81.80859 53.17578 81.53516 53.558594 81.45703 54.0625" stroke="none" fill="#231C1D" fill-rule="nonzero" />
        <path d="M84.01953 52.898438L84.44922 52.898438L84.44922 53.296875L84.46484 53.296875C 84.63281 53.01953 84.921875 52.835938 85.27734 52.835938C 85.61328 52.835938 85.890625 53.007812 85.99609 53.328125L85.99609 53.328125L86.01172 53.328125C 86.19531 53.007812 86.51953 52.835938 86.85547 52.835938C 87.34766 52.835938 87.69922 53.160156 87.69922 53.726562L87.69922 53.726562L87.69922 55.67578L87.26953 55.67578L87.26953 53.742188C 87.26953 53.40625 87.03906 53.191406 86.765625 53.191406C 86.39453 53.191406 86.07422 53.496094 86.07422 53.941406L86.07422 53.941406L86.07422 55.67578L85.64453 55.67578L85.64453 53.742188C 85.64453 53.40625 85.44531 53.191406 85.16797 53.191406C 84.83203 53.191406 84.44922 53.496094 84.44922 53.941406L84.44922 53.941406L84.44922 55.67578L84.01953 55.67578L84.01953 52.898438z" stroke="none" fill="#231C1D" fill-rule="nonzero" />
        <path d="M88.14453 54.29297C 88.14453 53.48047 88.66406 52.820312 89.46484 52.820312C 90.29297 52.820312 90.75 53.464844 90.75 54.38672L90.75 54.38672L88.58984 54.38672C 88.62109 54.953125 88.92578 55.382812 89.49219 55.382812C 89.89453 55.382812 90.16797 55.183594 90.26172 54.816406L90.26172 54.816406L90.69141 54.816406C 90.56641 55.414062 90.12109 55.75 89.49219 55.75C 88.63672 55.75 88.14453 55.09375 88.14453 54.29297M88.58984 54.0625L90.26172 54.0625C 90.23047 53.51172 89.953125 53.17578 89.44922 53.17578C 88.94141 53.17578 88.66406 53.558594 88.58984 54.0625" stroke="none" fill="#231C1D" fill-rule="nonzero" />
        <path d="M91.59375 53.265625C 91.80859 53.007812 92.08594 52.835938 92.484375 52.835938C 93.06641 52.835938 93.421875 53.160156 93.421875 53.726562L93.421875 53.726562L93.421875 55.67578L92.99219 55.67578L92.99219 53.757812C 92.99219 53.390625 92.76172 53.191406 92.36328 53.191406C 91.91797 53.191406 91.59375 53.496094 91.59375 53.95703L91.59375 53.95703L91.59375 55.67578L91.16406 55.67578L91.16406 52.882812L91.59375 52.882812L91.59375 53.265625z" stroke="none" fill="#231C1D" fill-rule="nonzero" />
        <path d="M93.72656 52.898438L94.125 52.898438L94.125 52.023438L94.55469 52.023438L94.55469 52.898438L95.09375 52.898438L95.09375 53.25L94.55469 53.25L94.55469 55.0625C 94.55469 55.26172 94.66406 55.320312 94.83203 55.320312C 94.921875 55.320312 95.015625 55.308594 95.0625 55.29297L95.0625 55.29297L95.078125 55.29297L95.078125 55.67578C 94.96875 55.691406 94.86328 55.70703 94.72266 55.70703C 94.37109 55.70703 94.109375 55.566406 94.109375 55.16797L94.109375 55.16797L94.109375 53.265625L93.71094 53.265625L93.71094 52.898438L93.72656 52.898438z" stroke="none" fill="#231C1D" fill-rule="nonzero" />
	</g>
</g>
</svg>